<svg id="undraw_successful_purchase_uyin" xmlns="http://www.w3.org/2000/svg" xmlns:xlink="http://www.w3.org/1999/xlink" width="325.449" height="223.96" viewBox="0 0 325.449 223.96">
  <defs>
    <linearGradient id="linear-gradient" x1="0.5" y1="1" x2="0.5" gradientUnits="objectBoundingBox">
      <stop offset="0" stop-color="gray" stop-opacity="0.251"/>
      <stop offset="0.54" stop-color="gray" stop-opacity="0.122"/>
      <stop offset="1" stop-color="gray" stop-opacity="0.102"/>
    </linearGradient>
  </defs>
  <rect id="Rectangle_264" data-name="Rectangle 264" width="24.242" height="9.091" rx="4.545" transform="translate(99.998 23.357)" fill="#6c63ff" opacity="0.1"/>
  <rect id="Rectangle_265" data-name="Rectangle 265" width="24.242" height="9.091" rx="4.545" transform="translate(172.118 15.175)" fill="#6c63ff" opacity="0.1"/>
  <rect id="Rectangle_266" data-name="Rectangle 266" width="24.242" height="9.091" rx="4.545" transform="translate(158.785 107.598)" fill="#6c63ff" opacity="0.1"/>
  <rect id="Rectangle_267" data-name="Rectangle 267" width="24.242" height="9.091" rx="4.545" transform="translate(169.694 117.598)" fill="#6c63ff" opacity="0.1"/>
  <rect id="Rectangle_268" data-name="Rectangle 268" width="24.242" height="9.091" rx="4.545" transform="translate(234.542 113.052)" fill="#6c63ff" opacity="0.1"/>
  <rect id="Rectangle_269" data-name="Rectangle 269" width="24.242" height="9.091" rx="4.545" transform="translate(37.272 120.325)" fill="#6c63ff" opacity="0.1"/>
  <rect id="Rectangle_270" data-name="Rectangle 270" width="24.242" height="9.091" rx="4.545" transform="translate(151.21 127.598)" fill="#6c63ff" opacity="0.1"/>
  <path id="Path_1400" data-name="Path 1400" d="M538.582,135.659l-11.109-32.248-3.994.606-3.576.458c.091-1.212.248-5.564-1.97-7.845a5.961,5.961,0,0,0-1.873-2.67c-5.315-4.873-6.421,5.094-6.421,5.094s-1.212,2.1-2.882,5.042l-.876-.167-.249,2.17c-3.7,6.536-8.609,15.382-8.609,16.212a10.953,10.953,0,0,1-.664,3.1s-3.764,6.2-5.094,9.3a14.875,14.875,0,0,1-3.333,4.873s-.321.245-.848.606a7.576,7.576,0,0,1,.3-1.73c.485-1.585,1.612-2.942,1.912-4.573a5.336,5.336,0,0,0,.079-1.185c.07-1.912-.861-3.794-1.248-5.706-.452-2.215-.209-4.654-1.391-6.579a6.79,6.79,0,0,0-4.2-2.806,32.239,32.239,0,0,0-4.606-.412c-1.424-.152-2.785-.782-4.209-1.015a5.433,5.433,0,0,0-2.309,0c-2.409.664-3.164,3.7-5.024,5.37-.67.606-1.491,1.024-2.1,1.688a5.072,5.072,0,0,0-1.142,3.636,7.748,7.748,0,0,0,.079,1.324c.23,1.585.842,3.085,1.212,4.639a16.064,16.064,0,0,1,.452,3.512c0,.267,0,.533-.024.8a2.8,2.8,0,0,1-.409,1.515,4.279,4.279,0,0,1-1.385.985,10.742,10.742,0,0,1-3.491-4.951s-.082.1-.221.3v-.3s-3.03-4.448-3.491-8.082l1.055.109,2.424-34.106-6.191-.909a14.128,14.128,0,0,0-1.888-6.179c1.039-2.048,1.564-4.821-2.994-5.1-5.333-.324-5.006,3.83-4.439,6.1a15.288,15.288,0,0,0-.3,3.773l-5.454-.794-.03.442h-1.3l-3.97,34.793,3.382-.17,12.394,1.291c.991,9.009,2.548,20.142,4.4,22.766a2.243,2.243,0,0,0,.2.251v15.942s-.221,20.606-3.988,23.918a19.7,19.7,0,0,1,7.206-1.13q-.064.2-.127.436a38.665,38.665,0,0,0-1.148,6.206q-.079.694-.142,1.448a78.151,78.151,0,0,0,.191,13.857c1.551,16.388,3.988,28.127,3.988,28.127l.679,9.527s-.664,16.166,1.106,21.482a8.02,8.02,0,0,0,2.267,1.47c.015.151.033.3.048.464s.039.409.061.621c-.794.361-2.276,1.791-2.6,7.409,0,0,.442,4.209-.664,6.2s-.442,7.751,2.879,8.415a17.748,17.748,0,0,0,6.421,0s1.551,0,.442-5.536l-.194-1.418c-.024-2.742.091-5.679.636-6.554,1.106-1.773-.442-3.542-.442-3.542s-.109.061-.288.142a26.2,26.2,0,0,1-.524-5.912,4.238,4.238,0,0,1,.045-.47A9.327,9.327,0,0,0,470.9,268.7V247.669s-.221-32.333,2.215-33c0,0,1.106,11.736.664,17.5a54.963,54.963,0,0,0,.664,11.96l.442,23.475s.424.2,1.109.442l-.045.427c-.27,2.609-.7,6.548-1.1,8.96a1.782,1.782,0,0,0-1.076,1.242c-.664,2.215-.221,7.751-1.552,9.3-.785.909-1.724,2.761-1.264,4.07-.288,1.148-.161,2.942,3.258,3.239,5.094.442,7.309-2.215,7.309-2.215a3.9,3.9,0,0,0,0-3.1c-.664-1.994.221-5.536.221-5.536s.476-3.006-.3-3.4c-.067-.358-.127-.585-.127-.585a2.667,2.667,0,0,0-.7-1.842,38.3,38.3,0,0,1,.891-9.43c.048-.161.1-.3.148-.47a5.983,5.983,0,0,0,1.873-.658s-.221-5.094,1.33-8.636.664-17.718.664-17.718a16.7,16.7,0,0,1,.273-6.742,66.155,66.155,0,0,0,2.406-10.242l1.306-9.148A37.435,37.435,0,0,0,488.413,193q-.277-.709-.606-1.418c-.376-.821-.794-1.645-1.261-2.464-.073-.127-.152-.258-.227-.385.476-.118.745-.188.745-.188S481.086,174.6,484.85,167.5a9.229,9.229,0,0,0,2.424-4.451c.376-3.082.785-6.161,1.457-9.191l.118-.533s.018-.1.048-.288c.085-.055.167-.112.248-.173,6.382-4.661,11.885-24.121,11.885-24.121l1.773-3.333.842-1.782L501.919,138.7l13.509,3.333,8.636-.664-.024-1.858,6.582-.512ZM452.947,91.72l-2.4-.352c-.421-2.167-.706-3.588-.706-3.588a13.162,13.162,0,0,0,1.33-1.991,13.8,13.8,0,0,1,1.776,5.918Zm-8.964-4.651c.167.57.318.936.318.936l.3,2.5-.818-.118a16.424,16.424,0,0,1,.2-3.33Zm75.7,17.457-3.248.418a12.179,12.179,0,0,0,.694-5.548,2.784,2.784,0,0,0,.891-2.318c1.93,2.306,1.748,6.379,1.664,7.439Zm-5.394-3.458a8.048,8.048,0,0,0,2.645-1.488,12.311,12.311,0,0,1-.745,5.394l-3.03.388-.836-.161Z" transform="translate(-320.734 -80.421)" fill="url(#linear-gradient)"/>
  <path id="Path_1401" data-name="Path 1401" d="M677.691,110.736l-7.906,3.3L660.6,82.01l2.155-2.558,3.948-.612Z" transform="translate(-460.421 -54.925)" fill="#6c63ff"/>
  <path id="Path_1402" data-name="Path 1402" d="M677.691,110.736l-7.906,3.3L660.6,82.01l2.155-2.558,3.948-.612Z" transform="translate(-460.421 -54.925)" fill="#fff" opacity="0.2"/>
  <path id="Path_1403" data-name="Path 1403" d="M636.151,80.86,622.43,82.621l7.033,33.89,13.718-1.067Z" transform="translate(-433.818 -56.333)" fill="#6c63ff"/>
  <path id="Path_1404" data-name="Path 1404" d="M636.151,80.86,622.43,82.621l7.033,33.89,13.718-1.067Z" transform="translate(-433.818 -56.333)" fill="#fff" opacity="0.07"/>
  <path id="Path_1405" data-name="Path 1405" d="M708.98,142.413l-.218-.027c0-.082.909-8.082-4.112-9.091l.042-.215C709.929,134.132,709,142.331,708.98,142.413Z" transform="translate(-510.214 -117.123)" fill="#535461"/>
  <rect id="Rectangle_271" data-name="Rectangle 271" width="15.115" height="22.124" transform="translate(148.01 48.641)" fill="#774e55"/>
  <rect id="Rectangle_272" data-name="Rectangle 272" width="15.115" height="22.124" transform="translate(148.01 48.641)" opacity="0.2"/>
  <path id="Path_1406" data-name="Path 1406" d="M649.862,123.627l-8.542.658,1.315-33.293,2.845-1.751,3.942.658Z" transform="translate(-446.984 -62.174)" fill="#6c63ff"/>
  <path id="Path_1407" data-name="Path 1407" d="M649.862,123.627l-8.542.658,1.315-33.293,2.845-1.751,3.942.658Z" transform="translate(-446.984 -62.174)" opacity="0.2"/>
  <path id="Path_1408" data-name="Path 1408" d="M614.751,83.19l-13.579-2.63-3.942,34.39,13.36,3.285Z" transform="translate(-416.254 -56.124)" fill="#6c63ff"/>
  <path id="Path_1409" data-name="Path 1409" d="M377.615,35.03h-1.973L371.7,69.417l8.76-.436Z" transform="translate(-259.065 -24.391)" fill="#6c63ff"/>
  <path id="Path_1410" data-name="Path 1410" d="M377.615,35.03h-1.973L371.7,69.417l8.76-.436Z" transform="translate(-259.065 -24.391)" opacity="0.2"/>
  <path id="Path_1411" data-name="Path 1411" d="M383.509,33.58,381.1,68.189l21.027,2.191,2.409-33.733Z" transform="translate(-265.617 -23.38)" fill="#6c63ff"/>
  <path id="Path_1412" data-name="Path 1412" d="M526.206,706.809s-2.627-.218-3.067,7.448c0,0,.439,4.161-.658,6.133s-.439,7.667,2.848,8.324a17.557,17.557,0,0,0,6.364,0s1.533,0,.439-5.476l-2.191-15.991Z" transform="translate(-382.906 -516.997)" fill="#5c3d53"/>
  <path id="Path_1413" data-name="Path 1413" d="M526.206,706.809s-2.627-.218-3.067,7.448c0,0,.439,4.161-.658,6.133s-.439,7.667,2.848,8.324a17.557,17.557,0,0,0,6.364,0s1.533,0,.439-5.476l-2.191-15.991Z" transform="translate(-382.906 -516.997)" opacity="0.05"/>
  <path id="Path_1414" data-name="Path 1414" d="M554.22,261.082a14.66,14.66,0,0,0,.464,5.151l-5.694,1.533s-9.418,1.315-5.694-2.424c1.288-1.288,1.921-3.5,2.2-5.83a32.3,32.3,0,0,0,.161-4.8,42.765,42.765,0,0,0-.388-4.485s13.8-4.818,10.733,3.067a28.022,28.022,0,0,0-1.318,4.394A23.159,23.159,0,0,0,554.22,261.082Z" transform="translate(-397.147 -197.756)" fill="#f8bdc5"/>
  <path id="Path_1415" data-name="Path 1415" d="M562.533,253.3a28.043,28.043,0,0,0-1.318,4.394,9.436,9.436,0,0,1-9.027-2.976,42.765,42.765,0,0,0-.388-4.485S565.6,245.42,562.533,253.3Z" transform="translate(-403.681 -197.763)" opacity="0.1"/>
  <circle id="Ellipse_339" data-name="Ellipse 339" cx="9.418" cy="9.418" r="9.418" transform="translate(146.149 40.866)" fill="#f8bdc5"/>
  <path id="Path_1416" data-name="Path 1416" d="M485.47,138.053V140.9l-4.818,12.485-1.315-1.315a2.215,2.215,0,0,1-.2-.248c-3.182-4.521-5.5-34.578-5.5-34.578l-3.064-25.415s-3.285-7.879,3.939-7.448,1.533,7.227,1.533,7.227,4.818,24.094,4.161,24.969,0,3.506,0,3.506,1.973,5.039,1.751,8.76S485.47,138.053,485.47,138.053Z" transform="translate(-346.551 -83.169)" fill="#f8bdc5"/>
  <path id="Path_1417" data-name="Path 1417" d="M637.721,132.47l-11.391,24.094-1.751,3.279s-5.454,19.248-11.754,23.857a5.751,5.751,0,0,1-1.17.676L610.34,173.86l1.212-3.054.091-.233a14.713,14.713,0,0,0,3.285-4.818c1.315-3.067,5.039-9.2,5.039-9.2a10.829,10.829,0,0,0,.658-3.067c0-1.315,12.485-23,12.485-23s1.094-9.857,6.364-5.039S637.721,132.47,637.721,132.47Z" transform="translate(-444.482 -110.88)" fill="#f8bdc5"/>
  <path id="Path_1418" data-name="Path 1418" d="M539.784,706.347s-7.448,3.067-6.573.218c.533-1.727.336-4.991.1-7.273-.152-1.488-.321-2.573-.321-2.573l6.364.658a5.149,5.149,0,0,0-.367,1.742A30.674,30.674,0,0,0,539.784,706.347Z" transform="translate(-390.571 -509.966)" fill="#f8bdc5"/>
  <path id="Path_1419" data-name="Path 1419" d="M577.469,692.773c-1.148,3.988-.848,10.933-.848,10.933s-6.791.876-6.133-.876c.458-1.212,1.127-7.218,1.491-10.748.161-1.542.261-2.612.261-2.612l6.133,1.315A6.127,6.127,0,0,0,577.469,692.773Z" transform="translate(-416.674 -504.913)" fill="#f8bdc5"/>
  <path id="Path_1420" data-name="Path 1420" d="M533,696.69l6.364.657A5.15,5.15,0,0,0,539,699.09a6.494,6.494,0,0,1-5.667.173C533.17,697.772,533,696.69,533,696.69Z" transform="translate(-390.578 -509.945)" opacity="0.1"/>
  <path id="Path_1421" data-name="Path 1421" d="M581.907,690.782a6.127,6.127,0,0,0-.909,1.991,11.781,11.781,0,0,1-5.488-.691c.161-1.542.261-2.612.261-2.612Z" transform="translate(-420.206 -504.913)" opacity="0.1"/>
  <path id="Path_1422" data-name="Path 1422" d="M540.728,458.384l-1.291,9.048a65.43,65.43,0,0,1-2.382,10.13,16.481,16.481,0,0,0-.27,6.667s.876,14.018-.658,17.524-1.315,8.542-1.315,8.542c-3.506,1.973-8.542-.439-8.542-.439l-.439-23.218a54.359,54.359,0,0,1-.658-11.818c.436-5.685-.658-17.3-.658-17.3-2.424.658-2.191,32.636-2.191,32.636v20.809a7.058,7.058,0,0,1-9.857,0c-1.752-5.257-1.094-21.248-1.094-21.248l-.658-9.418a276.62,276.62,0,0,1-3.939-27.818,77.272,77.272,0,0,1-.188-13.706q.064-.745.139-1.433a38.24,38.24,0,0,1,1.133-6.136,13.813,13.813,0,0,1,.667-1.942l23.536,1.094,1.388.064,3.333.155c.364.548.706,1.106,1.024,1.664.461.809.876,1.624,1.245,2.424.212.467.412.936.606,1.4A37.022,37.022,0,0,1,540.728,458.384Z" transform="translate(-372.018 -323.553)" fill="#5e52ad"/>
  <path id="Path_1423" data-name="Path 1423" d="M515.374,436.463s-1.03,10.3-8.294,7.321q.064-.745.139-1.433c1.709.464,6.439,1.1,6.618-5.891Z" transform="translate(-372.512 -328.571)" opacity="0.1"/>
  <path id="Path_1424" data-name="Path 1424" d="M598.766,438.568c-5.03,1.8-6.927-2.988-7.576-5.718l1.388.064c.755,4.294,3.767,4.545,5.6,4.242Q598.487,437.874,598.766,438.568Z" transform="translate(-431.135 -326.055)" opacity="0.1"/>
  <path id="Path_1425" data-name="Path 1425" d="M530.994,717.856c-1.118-.176-2.827-.791-2.291-2.939,0,0-2.07-.715-1.852,7.827,0,0-.218,4.161-.657,5.039s0,6.133,4.6,5.694c0,0,3.285,1.094,4.16-.658,0,0-.658-10.076.439-11.818s-.439-3.506-.439-3.506a4.739,4.739,0,0,1-2.667.606A11.717,11.717,0,0,0,530.994,717.856Z" transform="translate(-385.742 -522.638)" fill="#5c3d53"/>
  <path id="Path_1426" data-name="Path 1426" d="M559.38,748.909s-2.191,3.724,2.849,4.161,7.227-2.191,7.227-2.191a3.853,3.853,0,0,0,0-3.067c-.658-1.973.218-5.476.218-5.476s.658-4.161-.876-3.285S559.38,748.909,559.38,748.909Z" transform="translate(-408.634 -539.385)" fill="#5c3d53"/>
  <path id="Path_1427" data-name="Path 1427" d="M559.38,748.909s-2.191,3.724,2.849,4.161,7.227-2.191,7.227-2.191a3.853,3.853,0,0,0,0-3.067c-.658-1.973.218-5.476.218-5.476s.658-4.161-.876-3.285S559.38,748.909,559.38,748.909Z" transform="translate(-408.634 -539.385)" opacity="0.05"/>
  <path id="Path_1428" data-name="Path 1428" d="M565.032,727.141s-2.627-1.094-3.285,1.094-.218,7.667-1.533,9.2-3.067,5.694,2.191,5.476,6.364-1.973,6.364-1.973-.218-5.476.439-7.009a7.342,7.342,0,0,0,0-3.939S569.411,726.908,565.032,727.141Z" transform="translate(-408.589 -530.978)" fill="#5c3d53"/>
  <circle id="Ellipse_340" data-name="Ellipse 340" cx="0.439" cy="0.439" r="0.439" transform="translate(123.147 12.827)" opacity="0.2"/>
  <circle id="Ellipse_341" data-name="Ellipse 341" cx="0.439" cy="0.439" r="0.439" transform="translate(132.346 13.921)" opacity="0.2"/>
  <path id="Path_1429" data-name="Path 1429" d="M479.469,103.766h-.218c0-.094.155-9.333-5.151-10.185a2.791,2.791,0,0,0-2.539.7c-2.191,2.173-1.285,8.309-1.276,8.37l-.215.033c-.039-.258-.93-6.309,1.339-8.557a2.991,2.991,0,0,1,2.727-.767C479.626,94.242,479.472,103.672,479.469,103.766Z" transform="translate(-346.574 -89.403)" fill="#535461"/>
  <path id="Path_1430" data-name="Path 1430" d="M703.219,144.948l-.2-.094c.033-.073,3.409-7.385-1.052-9.933l.109-.191C706.712,137.378,703.255,144.872,703.219,144.948Z" transform="translate(-508.346 -118.273)" fill="#535461"/>
  <path id="Path_1431" data-name="Path 1431" d="M554.683,290.9l-5.694,1.533s-9.418,1.315-5.694-2.424c1.288-1.288,1.921-3.5,2.2-5.83,1.488,2.333,3.279,1.67,3.279,1.67l5.43-.106h.021A14.584,14.584,0,0,0,554.683,290.9Z" transform="translate(-397.147 -222.436)" opacity="0.1"/>
  <path id="Path_1432" data-name="Path 1432" d="M612.835,290.557a5.76,5.76,0,0,1-1.17.676l-1.315-10.515,1.212-3.055.3-.233C614.6,278.209,613.189,288.281,612.835,290.557Z" transform="translate(-444.489 -217.731)" opacity="0.1"/>
  <path id="Path_1433" data-name="Path 1433" d="M506.873,261.54v2.848l-4.818,12.485-1.315-1.315a2.216,2.216,0,0,1-.2-.248C501.11,268.8,506.873,261.54,506.873,261.54Z" transform="translate(-367.954 -206.656)" opacity="0.1"/>
  <path id="Path_1434" data-name="Path 1434" d="M541.235,432.216c-3.064.767-19.057,4.524-23.8.967a10.814,10.814,0,0,0-6.142-2,13.809,13.809,0,0,1,.667-1.942l23.536,1.094,1.388.064,3.333.155Q540.759,431.379,541.235,432.216Z" transform="translate(-375.447 -323.539)" opacity="0.1"/>
  <path id="Path_1435" data-name="Path 1435" d="M474.1,90.59s3.285,5.476,5.476,0" transform="translate(-349.526 -87.508)" fill="#f8bdc5"/>
  <path id="Path_1436" data-name="Path 1436" d="M696.753,127.81s-1.315,6.573,3.939,3.506" transform="translate(-504.608 -113.45)" fill="#f8bdc5"/>
  <g id="Group_493" data-name="Group 493" transform="translate(136.368 105.71)" opacity="0.1">
    <path id="Path_1437" data-name="Path 1437" d="M547.424,524.657c-.106-1.333-.185-2.167-.185-2.167-2.424.658-2.191,32.636-2.191,32.636v20.809a7.618,7.618,0,0,1-4.348,2.021,7.233,7.233,0,0,0,5.454-2.021V555.126S545.985,531.953,547.424,524.657Z" transform="translate(-532.312 -494.242)"/>
    <path id="Path_1438" data-name="Path 1438" d="M544.174,436.073c-.185-.467-.382-.936-.606-1.4-.37-.812-.785-1.627-1.245-2.424-.3-.558-.661-1.112-1.024-1.664l-3.333-.155-1.388-.064-23.536-1.094-.021.049,22.463,1.045,1.388.064,3.333.155c.364.548.706,1.106,1.024,1.664.461.809.876,1.624,1.245,2.424.212.467.412.936.606,1.4a37.038,37.038,0,0,1,1.079,22.318l-1.291,9.048a65.43,65.43,0,0,1-2.382,10.13,16.482,16.482,0,0,0-.27,6.667s.876,14.018-.658,17.524-1.315,8.542-1.315,8.542a6.363,6.363,0,0,1-2.745.758,6.969,6.969,0,0,0,3.839-.758s-.218-5.039,1.315-8.542.658-17.524.658-17.524a16.484,16.484,0,0,1,.27-6.667,65.416,65.416,0,0,0,2.382-10.13l1.291-9.048A37.042,37.042,0,0,0,544.174,436.073Z" transform="translate(-513.02 -429.27)"/>
  </g>
  <path id="Path_1439" data-name="Path 1439" d="M516.409,270.447c3.03,1.427,10.121-4.054,10.121-4.054,3.067.876.876,13.582.876,13.582l-.118.527c-.667,3-1.07,6.042-1.442,9.091a9.032,9.032,0,0,1-2.382,4.4c-3.724,7.009,2.191,20.809,2.191,20.809s-19.057,5.039-24.312,1.094-13.142-.876-13.142-.876c3.724-3.285,3.939-23.657,3.939-23.657V275.608c.439-6.573,6.363-14.018,6.363-14.018a11.007,11.007,0,0,0,9.16,7.239c1.494,2.424,3.333,1.742,3.333,1.742Z" transform="translate(-359.354 -206.691)" fill="#eb6475"/>
  <path id="Path_1440" data-name="Path 1440" d="M535.229,202.278a5.373,5.373,0,0,0-2.282,0c-2.382.658-3.13,3.661-4.97,5.309-.661.606-1.476,1.012-2.076,1.67a5.458,5.458,0,0,0-1.055,4.47c.227,1.567.833,3.051,1.212,4.588a15.877,15.877,0,0,1,.421,4.7,2.767,2.767,0,0,1-.406,1.488c-.439.606-1.248.8-1.818,1.282-1.739,1.5-.3,4.6-1.579,6.515-.549.827-1.576,1.373-1.785,2.342a3.206,3.206,0,0,0,.476,2.015,14.591,14.591,0,0,0,3.03,4.621,14.21,14.21,0,0,0,4.767,2.5c.512.191,1.155.358,1.545-.021.482-.473.118-1.273-.215-1.858a3.948,3.948,0,0,1-.63-3.03c.309-1.024,1.3-1.7,1.967-2.558,1.718-2.212,1.154-5.388.3-8.054a6.259,6.259,0,0,1-.461-3.464c.13-.491.388-.936.552-1.418.727-2.145-.494-4.5-.136-6.736a9.677,9.677,0,0,1,.909-2.506L534.923,210a4.089,4.089,0,0,1,.852-1.339A3.03,3.03,0,0,1,537.9,208a5.757,5.757,0,0,1,4.13,1.882c2.061,2.291,1.93,5.757,1.682,8.812l-.179,2.206a8.071,8.071,0,0,1-1.3,4.518c-.779.958-2.036,1.609-2.357,2.8-.279,1.027.245,2.142-.03,3.17-.412,1.536-2.309,2.091-3.312,3.333a3.409,3.409,0,0,0-.248,3.833c.382.606.991,1.212.909,1.924-.07.573-.585,1.036-.582,1.612a1.282,1.282,0,0,0,.93,1.112,3.757,3.757,0,0,0,1.536.073l5.433-.491a1.912,1.912,0,0,0,.967-.267,1.7,1.7,0,0,0,.555-1.239c.218-1.933-.3-4.045.664-5.736.3-.542.749-.994,1.085-1.515,1.854-2.909-.015-6.854.994-10.154.479-1.567,1.594-2.912,1.891-4.521.394-2.145-.724-4.242-1.158-6.364-.445-2.191-.206-4.6-1.376-6.509a6.7,6.7,0,0,0-4.148-2.776,31.988,31.988,0,0,0-4.545-.409C537.983,203.13,536.638,202.505,535.229,202.278Z" transform="translate(-382.113 -165.267)" opacity="0.1"/>
  <path id="Path_1441" data-name="Path 1441" d="M535.229,200.828a5.373,5.373,0,0,0-2.282,0c-2.382.658-3.13,3.661-4.97,5.309-.661.606-1.476,1.012-2.076,1.67a5.458,5.458,0,0,0-1.055,4.47c.227,1.567.833,3.051,1.212,4.588a15.877,15.877,0,0,1,.421,4.7,2.767,2.767,0,0,1-.406,1.488c-.439.606-1.248.8-1.818,1.282-1.739,1.5-.3,4.6-1.579,6.515-.549.827-1.576,1.373-1.785,2.342a3.206,3.206,0,0,0,.476,2.015,14.592,14.592,0,0,0,3.03,4.621,14.21,14.21,0,0,0,4.767,2.5c.512.191,1.155.358,1.545-.021.482-.473.118-1.273-.215-1.858a3.948,3.948,0,0,1-.63-3.03c.309-1.024,1.3-1.7,1.967-2.558,1.718-2.212,1.154-5.388.3-8.054a6.259,6.259,0,0,1-.461-3.464c.13-.491.388-.936.552-1.418.727-2.145-.494-4.5-.136-6.736a9.677,9.677,0,0,1,.909-2.506l1.924-4.136a4.089,4.089,0,0,1,.852-1.339,3.03,3.03,0,0,1,2.121-.661,5.757,5.757,0,0,1,4.13,1.882c2.061,2.291,1.93,5.757,1.682,8.812l-.179,2.206a8.072,8.072,0,0,1-1.3,4.518c-.779.958-2.036,1.609-2.357,2.8-.279,1.027.245,2.142-.03,3.17-.412,1.536-2.309,2.091-3.312,3.333a3.409,3.409,0,0,0-.248,3.833c.382.606.991,1.212.909,1.924-.07.573-.585,1.036-.582,1.612a1.282,1.282,0,0,0,.93,1.112,3.758,3.758,0,0,0,1.536.073l5.433-.491a1.912,1.912,0,0,0,.967-.267,1.7,1.7,0,0,0,.555-1.239c.218-1.933-.3-4.045.664-5.736.3-.542.749-.994,1.085-1.515,1.854-2.909-.015-6.854.994-10.154.479-1.567,1.594-2.912,1.891-4.521.394-2.145-.724-4.242-1.158-6.364-.445-2.191-.206-4.6-1.376-6.509a6.7,6.7,0,0,0-4.148-2.776,31.986,31.986,0,0,0-4.545-.409C537.983,201.683,536.638,201.058,535.229,200.828Z" transform="translate(-382.113 -164.256)" fill="#774e55"/>
  <path id="Path_1442" data-name="Path 1442" d="M529.75,363.183s4.382,1.315,10.733-1.533h3.282s.218,3.067,8.761,1.751" transform="translate(-388.313 -276.43)" opacity="0.1"/>
  <ellipse id="Ellipse_342" data-name="Ellipse 342" cx="162.725" cy="14.848" rx="162.725" ry="14.848" transform="translate(0 194.263)" fill="#6c63ff" opacity="0.1"/>
  <rect id="Rectangle_273" data-name="Rectangle 273" width="24.242" height="9.091" rx="4.545" transform="translate(76.362 78.205)" fill="#6c63ff" opacity="0.1"/>
  <rect id="Rectangle_274" data-name="Rectangle 274" width="24.242" height="9.091" rx="4.545" transform="translate(87.271 88.204)" fill="#6c63ff" opacity="0.1"/>
  <rect id="Rectangle_275" data-name="Rectangle 275" width="24.242" height="9.091" rx="4.545" transform="translate(182.724 78.811)" fill="#6c63ff" opacity="0.1"/>
  <rect id="Rectangle_276" data-name="Rectangle 276" width="24.242" height="9.091" rx="4.545" transform="translate(193.633 88.81)" fill="#6c63ff" opacity="0.1"/>
  <rect id="Rectangle_277" data-name="Rectangle 277" width="24.242" height="9.091" rx="4.545" transform="translate(68.787 98.204)" fill="#6c63ff" opacity="0.1"/>
  <rect id="Rectangle_278" data-name="Rectangle 278" width="24.242" height="9.091" rx="4.545" transform="translate(93.029 133.658)" fill="#6c63ff" opacity="0.1"/>
  <rect id="Rectangle_279" data-name="Rectangle 279" width="24.242" height="9.091" rx="4.545" transform="translate(103.938 143.658)" fill="#6c63ff" opacity="0.1"/>
  <rect id="Rectangle_280" data-name="Rectangle 280" width="24.242" height="9.091" rx="4.545" transform="translate(85.453 153.658)" fill="#6c63ff" opacity="0.1"/>
  <rect id="Rectangle_281" data-name="Rectangle 281" width="24.242" height="9.091" rx="4.545" transform="translate(190.603 159.112)" fill="#6c63ff" opacity="0.1"/>
  <rect id="Rectangle_282" data-name="Rectangle 282" width="24.242" height="9.091" rx="4.545" transform="translate(172.118 169.112)" fill="#6c63ff" opacity="0.1"/>
  <g id="Group_494" data-name="Group 494" transform="translate(272.806 117.138)" opacity="0.1">
    <path id="Path_1443" data-name="Path 1443" d="M1005.81,585.175s-4.388-22.23,4.648-37.466a34.333,34.333,0,0,0,4.736-21.194,57.743,57.743,0,0,0-2.121-10.345" transform="translate(-992.178 -501.265)" fill="none" stroke="#535461" stroke-miterlimit="10" stroke-width="2"/>
    <path id="Path_1444" data-name="Path 1444" d="M1028.725,472.252c-.242,2.651-5.758,9.9-5.758,9.9s-4.1-8.133-3.851-10.788a4.824,4.824,0,1,1,9.607.882Z" transform="translate(-1002.186 -466.984)" fill="#6c63ff"/>
    <path id="Path_1445" data-name="Path 1445" d="M1049.112,516.944c-1.646,2.094-10.212,5.188-10.212,5.188s.982-9.054,2.627-11.148a4.824,4.824,0,1,1,7.576,5.96Z" transform="translate(-1015.983 -496.252)" fill="#6c63ff"/>
    <path id="Path_1446" data-name="Path 1446" d="M1037.543,596.58c-2.479.976-11.433-.679-11.433-.679s5.418-7.321,7.9-8.3a4.824,4.824,0,1,1,3.537,8.976Z" transform="translate(-1007.069 -550.818)" fill="#6c63ff"/>
    <path id="Path_1447" data-name="Path 1447" d="M1016.925,658.567c-2.279,1.382-11.385,1.264-11.385,1.264s4.1-8.13,6.382-9.512a4.824,4.824,0,1,1,5,8.249Z" transform="translate(-992.732 -594.275)" fill="#6c63ff"/>
    <path id="Path_1448" data-name="Path 1448" d="M1002.79,532.687c1.733,2.024,10.421,4.751,10.421,4.751s-1.364-9.006-3.094-11.027a4.824,4.824,0,1,0-7.328,6.276Z" transform="translate(-990.006 -507.228)" fill="#6c63ff"/>
    <path id="Path_1449" data-name="Path 1449" d="M976.9,602.314c2.258,1.412,11.367,1.415,11.367,1.415s-3.994-8.182-6.254-9.6a4.824,4.824,0,1,0-5.112,8.182Z" transform="translate(-971.19 -555.091)" fill="#6c63ff"/>
    <path id="Path_1450" data-name="Path 1450" d="M965.008,676.091c1.988,1.773,10.964,3.318,10.964,3.318s-2.554-8.742-4.545-10.515a4.824,4.824,0,1,0-6.418,7.2Z" transform="translate(-963.273 -606.781)" fill="#6c63ff"/>
  </g>
  <g id="Group_495" data-name="Group 495" transform="translate(241.133 151.261)" opacity="0.1">
    <path id="Path_1451" data-name="Path 1451" d="M881.315,642.564s-2.354-11.936,2.494-20.118a18.436,18.436,0,0,0,2.542-11.382,31,31,0,0,0-1.133-5.555" transform="translate(-874.079 -597.656)" fill="none" stroke="#535461" stroke-miterlimit="10" stroke-width="2"/>
    <path id="Path_1452" data-name="Path 1452" d="M893.618,582.27c-.13,1.424-3.091,5.318-3.091,5.318s-2.2-4.367-2.07-5.791a2.591,2.591,0,0,1,5.151.473Z" transform="translate(-879.451 -579.591)" fill="#6c63ff"/>
    <path id="Path_1453" data-name="Path 1453" d="M904.555,606.261c-.885,1.124-5.485,2.785-5.485,2.785s.527-4.848,1.412-5.985a2.591,2.591,0,0,1,4.073,3.2Z" transform="translate(-886.852 -595.301)" fill="#6c63ff"/>
    <path id="Path_1454" data-name="Path 1454" d="M898.349,648.767c-1.33.524-6.139-.364-6.139-.364s2.909-3.939,4.242-4.454a2.591,2.591,0,0,1,1.9,4.818Z" transform="translate(-882.071 -624.341)" fill="#6c63ff"/>
    <path id="Path_1455" data-name="Path 1455" d="M887.282,681.873c-1.212.742-6.112.679-6.112.679s2.2-4.367,3.427-5.109a2.591,2.591,0,1,1,2.685,4.43Z" transform="translate(-874.376 -647.507)" fill="#6c63ff"/>
    <path id="Path_1456" data-name="Path 1456" d="M879.682,614.383c.93,1.088,5.6,2.552,5.6,2.552s-.73-4.848-1.661-5.921a2.592,2.592,0,1,0-3.939,3.37Z" transform="translate(-872.903 -600.86)" fill="#6c63ff"/>
    <path id="Path_1457" data-name="Path 1457" d="M865.787,651.764c1.212.758,6.1.761,6.1.761s-2.145-4.394-3.358-5.151a2.591,2.591,0,1,0-2.746,4.394Z" transform="translate(-862.806 -626.559)" fill="#6c63ff"/>
    <path id="Path_1458" data-name="Path 1458" d="M859.6,691.511c1.067.951,5.888,1.782,5.888,1.782s-1.37-4.694-2.424-5.645a2.591,2.591,0,1,0-3.449,3.867Z" transform="translate(-858.75 -654.446)" fill="#6c63ff"/>
  </g>
  <g id="Group_496" data-name="Group 496" transform="translate(49.317 153.08)" opacity="0.1">
    <path id="Path_1459" data-name="Path 1459" d="M248.315,648.564s-2.355-11.936,2.494-20.118a18.436,18.436,0,0,0,2.542-11.382,31.006,31.006,0,0,0-1.133-5.554" transform="translate(-241.079 -603.656)" fill="none" stroke="#535461" stroke-miterlimit="10" stroke-width="2"/>
    <path id="Path_1460" data-name="Path 1460" d="M260.618,588.27c-.13,1.424-3.091,5.318-3.091,5.318s-2.2-4.367-2.07-5.791a2.591,2.591,0,0,1,5.151.473Z" transform="translate(-246.451 -585.592)" fill="#6c63ff"/>
    <path id="Path_1461" data-name="Path 1461" d="M271.555,612.261c-.885,1.124-5.485,2.785-5.485,2.785s.527-4.848,1.412-5.985a2.591,2.591,0,0,1,4.073,3.2Z" transform="translate(-253.852 -601.301)" fill="#6c63ff"/>
    <path id="Path_1462" data-name="Path 1462" d="M265.349,654.767c-1.33.524-6.139-.364-6.139-.364s2.909-3.939,4.242-4.454a2.591,2.591,0,0,1,1.9,4.818Z" transform="translate(-249.071 -630.341)" fill="#6c63ff"/>
    <path id="Path_1463" data-name="Path 1463" d="M254.282,687.872c-1.212.742-6.112.679-6.112.679s2.2-4.367,3.427-5.109a2.591,2.591,0,1,1,2.685,4.43Z" transform="translate(-241.376 -653.507)" fill="#6c63ff"/>
    <path id="Path_1464" data-name="Path 1464" d="M246.682,620.383c.93,1.088,5.6,2.552,5.6,2.552s-.73-4.848-1.661-5.921a2.592,2.592,0,0,0-3.939,3.37Z" transform="translate(-239.903 -606.86)" fill="#6c63ff"/>
    <path id="Path_1465" data-name="Path 1465" d="M232.787,657.764c1.212.758,6.1.761,6.1.761s-2.145-4.394-3.358-5.151a2.591,2.591,0,1,0-2.746,4.394Z" transform="translate(-229.806 -632.559)" fill="#6c63ff"/>
    <path id="Path_1466" data-name="Path 1466" d="M226.6,697.511c1.067.951,5.888,1.782,5.888,1.782s-1.37-4.694-2.424-5.645a2.591,2.591,0,1,0-3.449,3.867Z" transform="translate(-225.75 -660.446)" fill="#6c63ff"/>
  </g>
</svg>
