<svg id="undraw_online_shopping_ga73" xmlns="http://www.w3.org/2000/svg" xmlns:xlink="http://www.w3.org/1999/xlink" width="325.774" height="251.337" viewBox="0 0 325.774 251.337">
  <defs>
    <linearGradient id="linear-gradient" x1="0.5" y1="1" x2="0.5" gradientUnits="objectBoundingBox">
      <stop offset="0" stop-color="gray" stop-opacity="0.251"/>
      <stop offset="0.54" stop-color="gray" stop-opacity="0.122"/>
      <stop offset="1" stop-color="gray" stop-opacity="0.102"/>
    </linearGradient>
    <linearGradient id="linear-gradient-2" y1="1" y2="-0.001" xlink:href="#linear-gradient"/>
  </defs>
  <path id="Path_1119" data-name="Path 1119" d="M317.165,133.034c-13.562,8.577-31.154,8.019-46.567,3.561s-29.575-12.411-44.588-18.06a157.464,157.464,0,0,0-39.176-9.225c-19.141-1.979-40.514.43-53.852,14.3-14.852,15.445-13.713,43.3,2.351,57.476,8.17,7.211,18.871,10.749,28.2,16.379s17.963,14.98,17.171,25.848c-.735,10.06-9.286,17.781-18.137,22.624-6.842,3.743-15.269,7.83-16.093,15.583-.8,7.5,6.287,13.383,13.052,16.725a81.081,81.081,0,0,0,71.241-.276c7.843-3.952,15.054-9.206,23.279-12.286,21.6-8.087,45.393.055,68.261,3.031a150.548,150.548,0,0,0,58.06-3.82c11.323-3.022,22.692-7.641,30.647-16.247,5.735-6.207,9.3-14.06,12.667-21.813q5.367-12.408,10.316-24.988c1.982-5.036,3.933-10.169,4.443-15.558.927-9.761-2.977-19.41-8.3-27.651a82.509,82.509,0,0,0-122.215-18.55" transform="translate(-112.806 -92.514)" fill="#6c63ff" opacity="0.1"/>
  <ellipse id="Ellipse_313" data-name="Ellipse 313" cx="43.542" cy="8.513" rx="43.542" ry="8.513" transform="translate(0 234.31)" fill="#6c63ff" opacity="0.1"/>
  <ellipse id="Ellipse_314" data-name="Ellipse 314" cx="91.273" cy="8.513" rx="91.273" ry="8.513" transform="translate(81.621 216.529)" fill="#6c63ff" opacity="0.1"/>
  <path id="Path_1120" data-name="Path 1120" d="M824.35,454.92s12.8-22.666,32.078-29.191A39.446,39.446,0,0,0,876.4,410.788a66.48,66.48,0,0,0,5.9-10.608" transform="translate(-589.501 -290.491)" fill="none" stroke="#535461" stroke-miterlimit="10" stroke-width="2"/>
  <path id="Path_1121" data-name="Path 1121" d="M1016.424,366.969c-2.2,2.13-12.424,4.334-12.424,4.334s2.512-10.153,4.706-12.286a5.541,5.541,0,0,1,7.718,7.952Z" transform="translate(-711.524 -261.469)" fill="#6c63ff"/>
  <path id="Path_1122" data-name="Path 1122" d="M997.633,421.163c-3,.593-12.783-3.115-12.783-3.115s7.625-7.16,10.624-7.756a5.542,5.542,0,1,1,2.159,10.872Z" transform="translate(-698.517 -297.286)" fill="#6c63ff"/>
  <path id="Path_1123" data-name="Path 1123" d="M938.963,483.7c-2.887-1-9.463-9.139-9.463-9.139s10.2-2.335,13.088-1.334a5.543,5.543,0,1,1-3.625,10.473Z" transform="translate(-660.922 -339.934)" fill="#6c63ff"/>
  <path id="Path_1124" data-name="Path 1124" d="M875.771,518.853c-3.019-.5-10.871-7.413-10.871-7.413s9.655-4.023,12.674-3.529a5.54,5.54,0,0,1-1.8,10.932Z" transform="translate(-617.044 -363.636)" fill="#6c63ff"/>
  <path id="Path_1125" data-name="Path 1125" d="M958.26,398.552c0,3.06,5.537,11.936,5.537,11.936s5.543-8.873,5.546-11.933a5.543,5.543,0,0,0-11.083,0Z" transform="translate(-680.456 -285.713)" fill="#6c63ff"/>
  <path id="Path_1126" data-name="Path 1126" d="M887.774,437.38c.914,2.919,8.85,9.732,8.85,9.732s2.637-10.124,1.723-13.043a5.546,5.546,0,0,0-10.586,3.31Z" transform="translate(-632.399 -310.866)" fill="#6c63ff"/>
  <path id="Path_1127" data-name="Path 1127" d="M825.954,490.124c.407,3.034,7.083,11.089,7.083,11.089s4.308-9.53,3.9-12.565a5.541,5.541,0,0,0-10.983,1.476Z" transform="translate(-590.557 -347.318)" fill="#6c63ff"/>
  <path id="Path_1128" data-name="Path 1128" d="M1016.424,366.969c-2.2,2.13-12.424,4.334-12.424,4.334s2.512-10.153,4.706-12.286a5.541,5.541,0,0,1,7.718,7.952Z" transform="translate(-711.524 -261.469)" opacity="0.25"/>
  <path id="Path_1129" data-name="Path 1129" d="M997.633,421.163c-3,.593-12.783-3.115-12.783-3.115s7.625-7.16,10.624-7.756a5.542,5.542,0,1,1,2.159,10.872Z" transform="translate(-698.517 -297.286)" opacity="0.25"/>
  <path id="Path_1130" data-name="Path 1130" d="M938.963,483.7c-2.887-1-9.463-9.139-9.463-9.139s10.2-2.335,13.088-1.334a5.543,5.543,0,1,1-3.625,10.473Z" transform="translate(-660.922 -339.934)" opacity="0.25"/>
  <path id="Path_1131" data-name="Path 1131" d="M875.771,518.853c-3.019-.5-10.871-7.413-10.871-7.413s9.655-4.023,12.674-3.529a5.54,5.54,0,0,1-1.8,10.932Z" transform="translate(-617.044 -363.636)" opacity="0.25"/>
  <path id="Path_1132" data-name="Path 1132" d="M958.26,398.552c0,3.06,5.537,11.936,5.537,11.936s5.543-8.873,5.546-11.933a5.543,5.543,0,0,0-11.083,0Z" transform="translate(-680.456 -285.713)" opacity="0.25"/>
  <path id="Path_1133" data-name="Path 1133" d="M887.774,437.38c.914,2.919,8.85,9.732,8.85,9.732s2.637-10.124,1.723-13.043a5.546,5.546,0,0,0-10.586,3.31Z" transform="translate(-632.399 -310.866)" opacity="0.25"/>
  <path id="Path_1134" data-name="Path 1134" d="M825.954,490.124c.407,3.034,7.083,11.089,7.083,11.089s4.308-9.53,3.9-12.565a5.541,5.541,0,0,0-10.983,1.476Z" transform="translate(-590.557 -347.318)" opacity="0.25"/>
  <path id="Path_1135" data-name="Path 1135" d="M826.65,413.748s2.512-25.906,17.479-39.683a39.456,39.456,0,0,0,12.209-21.755,66.406,66.406,0,0,0,1.091-12.08" transform="translate(-591.063 -249.772)" fill="none" stroke="#535461" stroke-miterlimit="10" stroke-width="2"/>
  <path id="Path_1136" data-name="Path 1136" d="M929.287,297.3c-1.145,2.839-9.6,8.982-9.6,8.982s-1.822-10.3-.677-13.152a5.54,5.54,0,0,1,10.265,4.141Z" transform="translate(-653.54 -215.58)" fill="#6c63ff"/>
  <path id="Path_1137" data-name="Path 1137" d="M931.156,351.335c-2.5,1.761-12.947,2.335-12.947,2.335s4.071-9.623,6.573-11.4a5.54,5.54,0,1,1,6.374,9.062Z" transform="translate(-653.253 -250.474)" fill="#6c63ff"/>
  <path id="Path_1138" data-name="Path 1138" d="M897.5,432.519c-3.047.257-12.353-4.52-12.353-4.52s8.375-6.265,11.426-6.521a5.54,5.54,0,1,1,.927,11.041Z" transform="translate(-630.798 -304.944)" fill="#6c63ff"/>
  <path id="Path_1139" data-name="Path 1139" d="M855.66,489.908c-2.961.767-12.94-2.367-12.94-2.367s7.2-7.593,10.159-8.359a5.541,5.541,0,1,1,2.781,10.727Z" transform="translate(-601.979 -344.03)" fill="#6c63ff"/>
  <path id="Path_1140" data-name="Path 1140" d="M882.871,351.608c1.241,2.8,9.9,8.661,9.9,8.661s1.472-10.355.234-13.152a5.542,5.542,0,1,0-10.133,4.491Z" transform="translate(-628.926 -252.209)" fill="#6c63ff"/>
  <path id="Path_1141" data-name="Path 1141" d="M834.3,415.953c2.021,2.3,12.039,5.309,12.039,5.309s-1.694-10.323-3.711-12.622a5.546,5.546,0,1,0-8.34,7.314Z" transform="translate(-595.315 -294.953)" fill="#6c63ff"/>
  <path id="Path_1142" data-name="Path 1142" d="M799.153,489.235c1.6,2.608,10.967,7.269,10.967,7.269s.077-10.46-1.524-13.068a5.541,5.541,0,0,0-9.444,5.8Z" transform="translate(-571.83 -345.246)" fill="#6c63ff"/>
  <path id="Path_1143" data-name="Path 1143" d="M281.84,0V226.294H444.6V0Z" transform="translate(-191.433)" fill="url(#linear-gradient)"/>
  <rect id="Rectangle_234" data-name="Rectangle 234" width="159.906" height="8.626" transform="translate(91.835 1.986)" fill="#f6f7f9"/>
  <g id="Group_477" data-name="Group 477" transform="translate(91.835 1.986)" opacity="0.2">
    <rect id="Rectangle_235" data-name="Rectangle 235" width="159.906" height="8.626" fill="#6c63ff"/>
  </g>
  <rect id="Rectangle_236" data-name="Rectangle 236" width="159.906" height="213.697" transform="translate(91.835 10.611)" fill="#f6f7f9"/>
  <circle id="Ellipse_315" data-name="Ellipse 315" cx="1.463" cy="1.463" r="1.463" transform="translate(94.577 4.834)" fill="#f6f7f9"/>
  <circle id="Ellipse_316" data-name="Ellipse 316" cx="1.463" cy="1.463" r="1.463" transform="translate(98.542 4.834)" fill="#f6f7f9"/>
  <circle id="Ellipse_317" data-name="Ellipse 317" cx="1.463" cy="1.463" r="1.463" transform="translate(102.507 4.834)" fill="#f6f7f9"/>
  <g id="Group_478" data-name="Group 478" transform="translate(120.374 23.785)" opacity="0.2">
    <rect id="Rectangle_237" data-name="Rectangle 237" width="102.824" height="4.026" fill="#6c63ff"/>
  </g>
  <rect id="Rectangle_238" data-name="Rectangle 238" width="13.662" height="4.026" transform="translate(209.536 23.785)" fill="#6c63ff"/>
  <g id="Group_479" data-name="Group 479" transform="translate(105.638 106.055)" opacity="0.2">
    <rect id="Rectangle_239" data-name="Rectangle 239" width="64.707" height="46.349" fill="#6c63ff" opacity="0.2"/>
  </g>
  <g id="Group_480" data-name="Group 480" transform="translate(105.638 45.932)" opacity="0.2">
    <rect id="Rectangle_240" data-name="Rectangle 240" width="64.707" height="46.349" fill="#6c63ff" opacity="0.2"/>
  </g>
  <g id="Group_481" data-name="Group 481" transform="translate(105.638 165.395)" opacity="0.2">
    <rect id="Rectangle_241" data-name="Rectangle 241" width="64.707" height="46.349" fill="#6c63ff" opacity="0.2"/>
  </g>
  <g id="Group_482" data-name="Group 482" transform="translate(173.231 106.055)" opacity="0.2">
    <rect id="Rectangle_242" data-name="Rectangle 242" width="64.707" height="46.349" fill="#6c63ff" opacity="0.2"/>
  </g>
  <g id="Group_483" data-name="Group 483" transform="translate(173.231 45.932)" opacity="0.2">
    <rect id="Rectangle_243" data-name="Rectangle 243" width="64.707" height="46.349" fill="#6c63ff" opacity="0.2"/>
  </g>
  <g id="Group_484" data-name="Group 484" transform="translate(173.231 165.395)" opacity="0.2">
    <rect id="Rectangle_244" data-name="Rectangle 244" width="64.707" height="46.349" fill="#6c63ff" opacity="0.2"/>
  </g>
  <path id="Path_1156" data-name="Path 1156" d="M683.762,226.07s-.587-1.466,3.371-1.1,15.323,1.63,20.238.523,7.843-1.46,7.551,0-8.5,4.757-8.5,4.757l-10.634,1.1-7.843-1.248-4.212-2.492Z" transform="translate(-493.988 -171.182)" fill="#6c63ff"/>
  <path id="Path_1157" data-name="Path 1157" d="M714.955,225.487c-.3,1.46-8.5,4.757-8.5,4.757l-10.634,1.1-7.843-1.245-4.209-2.492.029-1.54a.642.642,0,0,1,.225-.709c.362-.321,1.209-.571,3.147-.391,3.962.366,15.323,1.626,20.238.52,4-.9,6.691-1.3,7.378-.642a.642.642,0,0,1,.173.642Z" transform="translate(-494.011 -171.177)" opacity="0.1"/>
  <path id="Path_1158" data-name="Path 1158" d="M708.9,254.95a45.9,45.9,0,0,0-18.868,8.356,3.5,3.5,0,0,0-1.5-1.787,5.284,5.284,0,0,0-1.527-.642,1.538,1.538,0,0,0-1.4.6,7.9,7.9,0,0,0-1.241,1.838c-7.477-5.132-18.82-8.408-18.82-8.408v-1.026a5.686,5.686,0,0,1,.074-.722c.039-.276.087-.52.148-.818.962-4.9,4.767-16.08,4.767-16.08h4.3L683.17,238l9.383-.574,9.45-1.966,1.225-.257c2.043,1.6,4.363,12.831,5.274,17.611.116.606.205,1.107.273,1.476C708.854,254.7,708.9,254.95,708.9,254.95Z" transform="translate(-481.633 -178.432)" fill="#6c63ff"/>
  <path id="Path_1159" data-name="Path 1159" d="M667.106,255.064c.247-4.7,3.981-14.884,4.613-16.574h-1.177s-4.029,11.869-4.847,16.5a.118.118,0,0,0,0,.035c-.022.125-.045.247-.061.363-.039.276-.064.52-.074.722v1.026s11.343,3.278,18.82,8.408a7.9,7.9,0,0,1,1.241-1.838C682.763,261.108,671.924,256.874,667.106,255.064Z" transform="translate(-481.647 -180.667)" fill="#6c63ff"/>
  <path id="Path_1160" data-name="Path 1160" d="M757.454,254.246c-.029-.164-.064-.353-.1-.561-.048-.269-.106-.574-.17-.914h0c-.911-4.786-3.23-16.016-5.273-17.611l-1.225.257c.744,2,5.54,15.048,5.132,17.594-8.019,1.6-16.148,6.816-18.6,8.481a3.5,3.5,0,0,1,1.5,1.787,45.9,45.9,0,0,1,18.868-8.356S757.534,254.676,757.454,254.246Z" transform="translate(-530.313 -178.405)" fill="#6c63ff"/>
  <path id="Path_1161" data-name="Path 1161" d="M668.026,254.151c.244-4.7,3.981-14.884,4.613-16.571h-1.18s-4.029,11.869-4.847,16.5v.035q-.035.192-.058.366c-.039.276-.064.52-.074.722v1.027s11.339,3.275,18.82,8.408a7.768,7.768,0,0,1,1.238-1.838C683.68,260.2,672.844,255.96,668.026,254.151Z" transform="translate(-482.272 -180.049)" opacity="0.1"/>
  <path id="Path_1162" data-name="Path 1162" d="M667.106,255.064c.247-4.7,3.981-14.884,4.613-16.574h-1.177s-4.029,11.869-4.847,16.5a.118.118,0,0,0,0,.035c-.022.125-.045.247-.061.363-.039.276-.064.52-.074.722v1.026s11.343,3.278,18.82,8.408a7.9,7.9,0,0,1,1.241-1.838C682.763,261.108,671.924,256.874,667.106,255.064Z" transform="translate(-481.647 -180.667)" fill="#6c63ff"/>
  <path id="Path_1163" data-name="Path 1163" d="M756.551,253.326l-.1-.561c-.051-.269-.106-.571-.17-.914h0c-.908-4.783-3.23-16.013-5.273-17.611l-1.222.26c.744,2,5.54,15.048,5.132,17.595-8.019,1.6-16.151,6.816-18.6,8.478a3.506,3.506,0,0,1,1.5,1.79A45.852,45.852,0,0,1,756.679,254S756.631,253.762,756.551,253.326Z" transform="translate(-529.702 -177.78)" opacity="0.1"/>
  <path id="Path_1164" data-name="Path 1164" d="M757.454,254.246c-.029-.164-.064-.353-.1-.561-.048-.269-.106-.574-.17-.914h0c-.911-4.786-3.23-16.016-5.273-17.611l-1.225.257c.744,2,5.54,15.048,5.132,17.594-8.019,1.6-16.148,6.816-18.6,8.481a3.5,3.5,0,0,1,1.5,1.787,45.9,45.9,0,0,1,18.868-8.356S757.534,254.676,757.454,254.246Z" transform="translate(-530.313 -178.405)" fill="#6c63ff"/>
  <path id="Path_1165" data-name="Path 1165" d="M678.024,251.965s7.442,4.683,9.181-2.175l1.655.443s.545,7.6-11.33,3.262Z" transform="translate(-489.777 -188.342)" opacity="0.1"/>
  <path id="Path_1166" data-name="Path 1166" d="M678.024,250.135s7.442,4.683,9.181-2.175l1.655.443s.545,7.6-11.33,3.262Z" transform="translate(-489.777 -187.099)" fill="#6c63ff"/>
  <path id="Path_1167" data-name="Path 1167" d="M752.07,249.848s.962,5.6,11.16,2.887l-.359-1.059s-6.964,2.887-9.489-2.127Z" transform="translate(-540.407 -188.179)" opacity="0.1"/>
  <path id="Path_1168" data-name="Path 1168" d="M752.07,248.018s.962,5.6,11.16,2.887l-.359-1.059s-6.964,2.887-9.489-2.127Z" transform="translate(-540.407 -186.936)" fill="#6c63ff"/>
  <path id="Path_1169" data-name="Path 1169" d="M730.91,247.846v11.7h1.809s2.5-.9,2.444-6.159a33.925,33.925,0,0,0-.439-6.672Z" transform="translate(-526.034 -186.25)" opacity="0.1"/>
  <path id="Path_1170" data-name="Path 1170" d="M730,246.936v11.7h1.809s2.5-.9,2.444-6.159a33.635,33.635,0,0,0-.443-6.672Z" transform="translate(-525.416 -185.632)" fill="#6c63ff"/>
  <path id="Path_1171" data-name="Path 1171" d="M713.807,231c-.738,1.373-7.435,3.628-8.619,4.016l-.18.058s-.423.109-1.132.257c-2.156.449-6.961,1.283-10.586.552-.526-.1-1.071-.215-1.626-.321l-1.283-.279c-4.17-.927-8.484-2.14-9.251-3.208,0,0,.208-3.487.911-3.394s8.545,3.394,8.545,3.394l.112.016c.2.026.661.083,1.306.157,2.547.279,7.914.722,10.8-.051.138-.039.266-.077.391-.122.218-.074.446-.151.68-.237,3.715-1.315,9.277-3.67,9.277-3.67A2.47,2.47,0,0,1,713.807,231Z" transform="translate(-492.223 -173.658)" opacity="0.1"/>
  <path id="Path_1172" data-name="Path 1172" d="M714.955,226.209c-.3,1.46-8.5,4.757-8.5,4.757l-10.634,1.1-7.843-1.245-4.209-2.492.029-1.54a.642.642,0,0,1,.225-.709c1.4.423,8.34,3.346,8.34,3.346l.112.016c.2.026.661.083,1.306.157,2.547.279,7.914.722,10.8-.051.138-.038.266-.077.391-.122.218-.071.446-.151.68-.237,3.359-1.19,8.231-3.23,9.132-3.609A.642.642,0,0,1,714.955,226.209Z" transform="translate(-494.011 -171.898)" opacity="0.1"/>
  <path id="Path_1173" data-name="Path 1173" d="M713.807,229.156c-.738,1.373-7.435,3.625-8.619,4.013l-.18.061s-.423.106-1.132.253c-2.156.449-6.961,1.283-10.586.552-.526-.1-1.071-.215-1.626-.321l-1.283-.279c-4.17-.927-8.484-2.14-9.251-3.208,0,0,.208-3.487.911-3.391s8.545,3.391,8.545,3.391l.112.016c.2.026.661.087,1.306.157,2.547.279,7.914.722,10.8-.051.138-.038.266-.077.391-.122.218-.071.446-.151.68-.237,3.715-1.315,9.277-3.67,9.277-3.67S714.622,227.651,713.807,229.156Z" transform="translate(-492.223 -172.401)" fill="#6c63ff"/>
  <circle id="Ellipse_319" data-name="Ellipse 319" cx="1.174" cy="1.174" r="1.174" transform="translate(204.972 59.286)" opacity="0.1"/>
  <circle id="Ellipse_320" data-name="Ellipse 320" cx="1.174" cy="1.174" r="1.174" transform="translate(204.972 58.99)" fill="#6c63ff"/>
  <path id="Path_1174" data-name="Path 1174" d="M712.5,238.667l-.321,3.31L710.9,241.7l.321-3.188C711.4,238.542,711.862,238.6,712.5,238.667Z" transform="translate(-512.443 -180.681)" opacity="0.1"/>
  <path id="Path_1175" data-name="Path 1175" d="M711.6,238.667l-.321,3.31L710,241.7l.321-3.188C710.5,238.542,710.962,238.6,711.6,238.667Z" transform="translate(-511.832 -180.681)" fill="#6c63ff"/>
  <path id="Path_1176" data-name="Path 1176" d="M750.146,240.925l-.18.061s-.42.106-1.132.253l-1.094-3.14c.138-.038.27-.077.395-.122.218-.071.446-.151.68-.237Z" transform="translate(-537.466 -180.158)" opacity="0.1"/>
  <path id="Path_1177" data-name="Path 1177" d="M751.066,240.925l-.18.061s-.423.106-1.132.253l-1.094-3.14c.138-.038.266-.077.391-.122.218-.071.446-.151.68-.237Z" transform="translate(-538.091 -180.158)" fill="#6c63ff"/>
  <g id="Group_485" data-name="Group 485" transform="translate(117.736 51.654)" opacity="0.5">
    <path id="Path_1178" data-name="Path 1178" d="M497.4,219.818A8.468,8.468,0,0,1,501.661,221a23.9,23.9,0,0,0,6.037,0c2.13-.475,3.208-2.13,3.612-1.658s.414,4.914.414,4.914l-1.835,4.914-4.144,3.076-6.569-1.893L497,224.8Z" transform="translate(-484.892 -219.259)" fill="#6c63ff"/>
    <path id="Path_1179" data-name="Path 1179" d="M511.724,224.284l-1.835,4.914-4.144,3.076-6.569-1.893L497,224.817l.414-4.972h.1a8.7,8.7,0,0,1,4.17,1.187,23.9,23.9,0,0,0,6.037,0c2.024-.449,3.089-1.97,3.529-1.713h0a.2.2,0,0,1,.067.051C511.724,219.838,511.724,224.284,511.724,224.284Z" transform="translate(-484.892 -219.28)" opacity="0.1"/>
    <path id="Path_1180" data-name="Path 1180" d="M511.724,224.352l-1.835,4.914-4.144,3.076-6.569-1.893L497,224.885l.414-4.972h.1c.366,1.569,1.925,6.521,6.89,6.871,5.107.356,6.557-5.719,6.858-7.394a.2.2,0,0,1,.067.051C511.724,219.906,511.724,224.352,511.724,224.352Z" transform="translate(-484.892 -219.348)" opacity="0.1"/>
    <path id="Path_1181" data-name="Path 1181" d="M471.76,219.995s1.065,6.925,6.987,7.339,6.925-7.814,6.925-7.814,8.584,2.813,10.586,7.83,3.493,9.043,3.493,9.043-.642,1.123-1.363,1.241-5.623,3.493-5.623,3.493-.058,9.591.475,10.181.356,3.137-1.245,3.018-12.667-2.6-22.133-.532c0,0-3.965,1.421-3.849-.889s.3-11.365.3-11.365-5.979-2.6-6.332-2.6-1.245-.468-.3-2.011,2.133-6.807,2.133-6.807S464.184,222.561,471.76,219.995Z" transform="translate(-459.255 -219.436)" fill="#6c63ff"/>
    <path id="Path_1182" data-name="Path 1182" d="M555.63,259.77s1.777,1.3,1.363,2.31S555.63,259.77,555.63,259.77Z" transform="translate(-524.715 -246.775)" opacity="0.1"/>
    <path id="Path_1183" data-name="Path 1183" d="M563.487,263.67a3.207,3.207,0,0,0,0,1.767" transform="translate(-529.968 -249.424)" opacity="0.1"/>
    <path id="Path_1184" data-name="Path 1184" d="M566.442,273.8s.237,1.6-.471,1.774" transform="translate(-531.739 -256.305)" opacity="0.1"/>
    <path id="Path_1185" data-name="Path 1185" d="M487.019,258.48s-3.314,2.887-2.191,4.026" transform="translate(-476.467 -245.899)" opacity="0.1"/>
    <path id="Path_1186" data-name="Path 1186" d="M485.689,280.26s-.054,3.018.86,3.256" transform="translate(-477.209 -260.693)" opacity="0.1"/>
    <path id="Path_1187" data-name="Path 1187" d="M515.4,308.675s2.245-1.536,2.842-1.479" transform="translate(-497.39 -278.987)" opacity="0.1"/>
    <path id="Path_1188" data-name="Path 1188" d="M522.4,313.392s2.432-1.719,3.083-1.6" transform="translate(-502.145 -282.104)" opacity="0.1"/>
  </g>
  <g id="Group_486" data-name="Group 486" transform="translate(184.664 110.481)" opacity="0.5">
    <path id="Path_1189" data-name="Path 1189" d="M687,402.65s19.368.917,29,.353l-.212,2.541-17.04,2.245-5.043-1.553Z" transform="translate(-680.873 -402.65)" fill="#6c63ff"/>
    <path id="Path_1190" data-name="Path 1190" d="M716.011,403l-.212,2.541-17.036,2.245-5.046-1.553L687,402.65s.4.023,1.107.051h0c4.2.183,19.333.773,27.641.321Z" transform="translate(-680.873 -402.65)" opacity="0.1"/>
    <path id="Path_1191" data-name="Path 1191" d="M709.742,439.128c-3.74,2.245-16.722.071-16.722.071l-3.6-12.831L685.4,439.42c-5.713,2.047-17.5-.917-17.5-.917l4.587-28.228.792-3.891.747-3.734,7.269,2.188s2.185,1.482,11.288,1.058,10.441-2.887,10.441-2.887c.4.115.783,1.53,1.168,3.288.558,2.566,1.126,5.857,1.8,6.945C707.131,415.07,709.742,439.128,709.742,439.128Z" transform="translate(-667.9 -402.65)" fill="#6c63ff"/>
    <path id="Path_1192" data-name="Path 1192" d="M715.6,407.171a33.329,33.329,0,0,1-15.1,4.334c-1.729.212-15.824-4.244-15.824-4.244l.747-3.731,7.269,2.188s2.184,1.482,11.288,1.059,10.441-2.887,10.441-2.887C714.829,404,715.211,405.413,715.6,407.171Z" transform="translate(-679.291 -403.248)" opacity="0.1"/>
    <path id="Path_1193" data-name="Path 1193" d="M716.011,403l-.212,2.541-17.036,2.245-5.046-1.553L687,402.65s.4.023,1.107.051h0l6.159,1.854s2.184,1.482,11.288,1.059c7.15-.321,9.511-1.925,10.194-2.6Z" transform="translate(-680.873 -402.65)" opacity="0.1"/>
    <path id="Path_1194" data-name="Path 1194" d="M715.6,406.291a33.329,33.329,0,0,1-15.1,4.334c-1.729.212-15.824-4.244-15.824-4.244l.747-3.731,7.269,2.188s2.184,1.482,11.288,1.058,10.441-2.887,10.441-2.887C714.829,403.118,715.211,404.533,715.6,406.291Z" transform="translate(-679.291 -402.65)" fill="#6c63ff"/>
    <circle id="Ellipse_321" data-name="Ellipse 321" cx="0.741" cy="0.741" r="0.741" transform="translate(21.838 5.819)" opacity="0.1"/>
    <circle id="Ellipse_322" data-name="Ellipse 322" cx="0.741" cy="0.741" r="0.741" transform="translate(21.838 5.537)" fill="none" stroke="#6c63ff" stroke-miterlimit="10" stroke-width="1"/>
    <path id="Path_1195" data-name="Path 1195" d="M679.23,463.58s1.306,3.881,2.223,3.811S679.23,463.58,679.23,463.58Z" transform="translate(-675.596 -444.035)" opacity="0.1"/>
    <path id="Path_1196" data-name="Path 1196" d="M676.59,475.46s.812,2.329,1.658,2.717" transform="translate(-673.802 -452.104)" opacity="0.1"/>
    <path id="Path_1197" data-name="Path 1197" d="M676.59,483.05a10.242,10.242,0,0,0,2.043,2.011" transform="translate(-673.802 -457.26)" opacity="0.1"/>
    <path id="Path_1198" data-name="Path 1198" d="M784,437.3s1.2,1.8,0,2.188" transform="translate(-746.758 -426.185)" opacity="0.1"/>
    <path id="Path_1199" data-name="Path 1199" d="M784.017,445.556c-1.392-1.652-.532,2.245-.532,2.245S784.373,445.979,784.017,445.556Z" transform="translate(-746.229 -431.516)" opacity="0.1"/>
    <path id="Path_1200" data-name="Path 1200" d="M784.185,452.69s-2.117,3.14-1.694,3.493" transform="translate(-745.695 -436.638)" opacity="0.1"/>
    <path id="Path_1201" data-name="Path 1201" d="M689.033,428.436a15.445,15.445,0,0,1-5.453-1.245l.115-.26c.051.026,5.232,2.274,8.035.587a3.988,3.988,0,0,0,1.767-3.368l.282.022a4.257,4.257,0,0,1-1.905,3.586A5.453,5.453,0,0,1,689.033,428.436Z" transform="translate(-678.55 -417.253)" opacity="0.1"/>
    <path id="Path_1202" data-name="Path 1202" d="M689.033,427.556a15.447,15.447,0,0,1-5.453-1.245l.115-.257c.051.022,5.232,2.271,8.035.584a3.988,3.988,0,0,0,1.767-3.368l.282.022a4.258,4.258,0,0,1-1.905,3.586A5.453,5.453,0,0,1,689.033,427.556Z" transform="translate(-678.55 -416.656)" fill="#6c63ff"/>
    <path id="Path_1203" data-name="Path 1203" d="M757.715,429.591a4.392,4.392,0,0,1-1.925-.414,4.938,4.938,0,0,1-2.46-3.6l.282-.035a4.707,4.707,0,0,0,2.3,3.384c1.751.844,4.237.321,7.378-1.6l.144.241A11.661,11.661,0,0,1,757.715,429.591Z" transform="translate(-725.926 -418.197)" opacity="0.1"/>
    <path id="Path_1204" data-name="Path 1204" d="M757.715,428.711a4.392,4.392,0,0,1-1.925-.414,4.938,4.938,0,0,1-2.46-3.6l.282-.035a4.707,4.707,0,0,0,2.3,3.384c1.751.844,4.237.321,7.378-1.6l.144.241A11.661,11.661,0,0,1,757.715,428.711Z" transform="translate(-725.926 -417.6)" fill="#6c63ff"/>
  </g>
  <path id="Path_1205" data-name="Path 1205" d="M503.34,404s3.641,5.084,6.114,4.59,2.717-1.036,4.914-4.59l1.8,4.148-2.124,5.132-2.515,3.256L506.2,415.7l-1.726-5.825Z" transform="translate(-371.463 -293.086)" fill="#6c63ff"/>
  <path id="Path_1206" data-name="Path 1206" d="M516.171,408.124l-2.124,5.132-2.515,3.256-5.331-.837-1.726-5.825-1.135-5.87s.321.443.821,1.052c1.222,1.46,3.548,3.885,5.293,3.529,2.438-.488,2.711-1.023,4.828-4.446l.087-.144Z" transform="translate(-371.463 -293.065)" opacity="0.1"/>
  <path id="Path_1207" data-name="Path 1207" d="M516.171,408.144l-2.124,5.132-2.515,3.256L506.2,415.7l-1.726-5.825L503.34,404s.321.443.821,1.052c.8,2.566,2.505,6.682,5.293,6.646,3.147-.035,4.417-5.248,4.828-7.554l.087-.144Z" transform="translate(-371.463 -293.086)" opacity="0.1"/>
  <path id="Path_1208" data-name="Path 1208" d="M491.968,402.149s-1.235-.148-.593,1.383,1.825,6.563,1.235,7.6-.3,3.849-2.861,4.395l.738,2.909s.148,6.416-.148,7.355a38.99,38.99,0,0,0-.247,6.659c.1.542.051,4.1-.343,4.247a1.356,1.356,0,0,0,.642,2.168c1.283.3,6.759.446,7.747.741s7.994,0,7.994,0,2.961-.395,3.7-.642.889-.837.642-1.973-1.382-9.376-1.135-10.412.3-11.153.3-11.153a2.842,2.842,0,0,1-1.925-2.518c0-1.877-.741-6.91.789-10.066,0,0-1.235-.847-1.431-.7a7.942,7.942,0,0,1-2.059-.391s-.962,8.587-4.988,8.635-5.819-8.635-5.819-8.635S494.239,400.965,491.968,402.149Z" transform="translate(-362.016 -291.385)" fill="#6c63ff"/>
  <path id="Path_1209" data-name="Path 1209" d="M515.49,489.38s.831,2.024,2.217,2.319S515.49,489.38,515.49,489.38Z" transform="translate(-379.716 -351.078)" opacity="0.1"/>
  <path id="Path_1210" data-name="Path 1210" d="M511.49,494.3s2.682,2.172,2.566,2.617" transform="translate(-376.999 -354.42)" opacity="0.1"/>
  <path id="Path_1211" data-name="Path 1211" d="M494.72,454.3s2.124,1.431,2.124,2.467" transform="translate(-365.608 -327.251)" opacity="0.1"/>
  <path id="Path_1212" data-name="Path 1212" d="M497.095,462.975a11.564,11.564,0,0,0-.985-2.515" transform="translate(-366.552 -331.435)" opacity="0.1"/>
  <path id="Path_1213" data-name="Path 1213" d="M496.11,470.76a18.471,18.471,0,0,1,.985,2.271" transform="translate(-366.552 -338.431)" opacity="0.1"/>
  <path id="Path_1214" data-name="Path 1214" d="M544.436,459.53s-2.762.84-2.518,1.876" transform="translate(-397.656 -330.803)" opacity="0.1"/>
  <path id="Path_1215" data-name="Path 1215" d="M541.91,480.7s3.618-4.2,2.531-4.1S541.91,480.7,541.91,480.7Z" transform="translate(-397.661 -342.401)" opacity="0.1"/>
  <g id="Group_487" data-name="Group 487" transform="translate(127.41 110.111)" opacity="0.1">
    <path id="Path_1216" data-name="Path 1216" d="M546.034,428.342c0-.866-.157-2.406-.176-4.122-.019,1.97.176,3.792.176,4.764a2.826,2.826,0,0,0,1.925,2.515v-.642A2.836,2.836,0,0,1,546.034,428.342Z" transform="translate(-527.751 -416.931)"/>
    <path id="Path_1217" data-name="Path 1217" d="M552.528,492.564a5.008,5.008,0,0,1,.087.51,3.207,3.207,0,0,0-.087-1.152c-.212-.962-1.071-7.14-1.161-9.553A91.468,91.468,0,0,0,552.528,492.564Z" transform="translate(-531.49 -456.428)"/>
    <path id="Path_1218" data-name="Path 1218" d="M491.348,474.788a28.8,28.8,0,0,1,.292-4.812,27.9,27.9,0,0,0,.186-4.356,22.169,22.169,0,0,1-.186,3.715A34.431,34.431,0,0,0,491.348,474.788Z" transform="translate(-490.727 -445.051)"/>
    <path id="Path_1219" data-name="Path 1219" d="M495.735,402.791c2.268-1.184,2.22-.395,2.22-.395s1.777,8.687,5.819,8.635,5-8.635,5-8.635a8.043,8.043,0,0,0,2.072.391c.2-.151.853.321,1.216.552.067-.17.138-.337.218-.5,0,0-1.235-.847-1.434-.7a8.016,8.016,0,0,1-2.072-.391s-.962,8.587-4.988,8.635-5.819-8.635-5.819-8.635.048-.789-2.22.395c0,0-1-.115-.725.991C495.187,402.726,495.735,402.791,495.735,402.791Z" transform="translate(-493.193 -401.497)"/>
    <path id="Path_1220" data-name="Path 1220" d="M489.733,505.759c.321-.119.407-2.316.388-3.529-.016,1.219-.128,2.788-.388,2.887s-.385.642-.285,1.164C489.5,506.006,489.6,505.8,489.733,505.759Z" transform="translate(-489.414 -469.917)"/>
    <path id="Path_1221" data-name="Path 1221" d="M493.275,430.738a2.759,2.759,0,0,0,.151-1.318,1.69,1.69,0,0,1-.151.677c-.593,1.036-.3,3.849-2.865,4.395l.154.6C492.963,434.472,492.694,431.755,493.275,430.738Z" transform="translate(-490.09 -420.463)"/>
  </g>
  <path id="Path_1222" data-name="Path 1222" d="M515.151,587.551c-1.213,2.207-13.521,0-13.521,0l.032-.221.244-1.71h12.969l.247,1.707Z" transform="translate(-370.302 -416.447)" fill="#6c63ff"/>
  <path id="Path_1223" data-name="Path 1223" d="M515.151,590.972c-1.213,2.207-13.521,0-13.521,0l.032-.221c.59,0,9.495-.212,13.472,0Z" transform="translate(-370.302 -419.868)" opacity="0.1"/>
  <path id="Path_1224" data-name="Path 1224" d="M479.48,591.437h0s-2.207.552-5.63,9.822-4.635,21.248-4.635,21.248-1.925,3.259,6.29,3.477c0,0-.661,2.152,3.974,1.822s3.968-.327,3.968-.327,2.98-1.877,4.3-1.546a6.974,6.974,0,0,1,3.586,1.655c1.434,1.213,6.018.719,6.072-.218a8.655,8.655,0,0,0,0-1.383s7.009.443,5.684-4.635-2.428-13.412-2.428-13.412-3.586-16.279-7.673-16.5S479.48,591.437,479.48,591.437Z" transform="translate(-348.152 -420.332)" fill="#6c63ff"/>
  <rect id="Rectangle_245" data-name="Rectangle 245" width="28.267" height="0.221" transform="matrix(0.092, -0.996, 0.996, 0.092, 127.255, 205.66)" opacity="0.1"/>
  <rect id="Rectangle_246" data-name="Rectangle 246" width="29.636" height="0.221" transform="translate(135.178 207.127) rotate(-89.78)" opacity="0.1"/>
  <path id="Path_1225" data-name="Path 1225" d="M535.18,611.6" transform="translate(-393.09 -434.093)" fill="none" stroke="#6c63ff" stroke-miterlimit="10" stroke-width="1"/>
  <rect id="Rectangle_247" data-name="Rectangle 247" width="0.221" height="29.768" transform="translate(141.998 177.492) rotate(-2.13)" opacity="0.1"/>
  <path id="Path_1226" data-name="Path 1226" d="M550.2,638.546a142.258,142.258,0,0,0-3.307-28.661l.215-.055a143.158,143.158,0,0,1,3.314,28.725Z" transform="translate(-401.043 -432.891)" opacity="0.1"/>
  <path id="Path_1227" data-name="Path 1227" d="M502.468,596.8s-.385.221,0,1.283" transform="translate(-370.754 -424.04)" opacity="0.1"/>
  <path id="Path_1228" data-name="Path 1228" d="M505.293,596.8s-1.049.661,0,1.767" transform="translate(-372.473 -424.04)" opacity="0.1"/>
  <path id="Path_1229" data-name="Path 1229" d="M536.9,596.8s1.434,1.379,1.1,1.767" transform="translate(-394.258 -424.04)" opacity="0.1"/>
  <path id="Path_1230" data-name="Path 1230" d="M540.5,595.77s.224,1.655,1.052,2.1" transform="translate(-396.703 -423.341)" opacity="0.1"/>
  <g id="Group_488" data-name="Group 488" transform="translate(192.922 168.947)" opacity="0.5">
    <path id="Path_1231" data-name="Path 1231" d="M722.454,585.759s5.415-2.156,7.756.475-1.6,5.832-1.6,5.832l-1.655,3.3-3.894-.427-.917-4.568Z" transform="translate(-712.999 -584.923)" fill="#6c63ff"/>
    <path id="Path_1232" data-name="Path 1232" d="M728.607,592.04l-1.655,3.3-3.894-.414-.917-4.565.321-4.616.087-.032c.687-.253,5.322-1.87,7.538.356a1.745,1.745,0,0,1,.132.135C732.552,588.826,728.607,592.04,728.607,592.04Z" transform="translate(-712.999 -584.913)" opacity="0.1"/>
    <path id="Path_1233" data-name="Path 1233" d="M728.607,593.743l-1.655,3.3-3.894-.414-.917-4.565.321-4.616.087-.032c.67,3.673,2.46,5.222,2.762,5.453l.045.032,1.1-.09c2.14-1.18,3.269-3.987,3.631-5.049a1.735,1.735,0,0,1,.132.135C732.552,590.528,728.607,593.743,728.607,593.743Z" transform="translate(-712.999 -586.616)" opacity="0.1"/>
    <path id="Path_1234" data-name="Path 1234" d="M718.708,606.459s-1.193,15.2-.869,17.033-.69,1.973-.69,1.973-4.318.962-5.132.321a4.909,4.909,0,0,0-2.2-.767s-3.208.734-4.638.186a10.572,10.572,0,0,0-3.811-.321s-1.835,1.1-2.342.872-1.148-.138-2.617-.549-2.3-.783-1.517-3.307.1-10.515.048-11.48a48.907,48.907,0,0,0-1.148-6.095c-.645-2.791,1.1-2.2,1.1-2.2,4.09-2.111,2.39-6.245,1.748-8.08s.366-1.925.869-1.925,2.435-1.652,2.435-1.652l.783-.7,2.387-2.143c.593,4.013,2.518,5.7,2.839,5.947l.045.035,1.1-.093c2.663-1.466,3.763-5.453,3.763-5.453a6.955,6.955,0,0,0,1.835,1.745,31.425,31.425,0,0,0,3.262,2.021c1.925,1.148.507,2.3.507,2.3-2.342,7.987.962,8.34.962,8.34C719.857,602.818,718.708,606.459,718.708,606.459Z" transform="translate(-693.644 -586.752)" fill="#6c63ff"/>
    <path id="Path_1235" data-name="Path 1235" d="M714.07,601.69s-.69.369-.69.779" transform="translate(-707.049 -596.308)" opacity="0.1"/>
    <path id="Path_1236" data-name="Path 1236" d="M715.177,604.12s-.917.962-.757,1.241" transform="translate(-707.743 -597.959)" opacity="0.1"/>
    <path id="Path_1237" data-name="Path 1237" d="M715.806,608s-.69.735-.414,1.148" transform="translate(-708.372 -600.594)" opacity="0.1"/>
    <path id="Path_1238" data-name="Path 1238" d="M720.069,595.219l-2.887,2.788a12.674,12.674,0,0,0-2.342-6.624l2.387-2.143C717.81,593.285,719.751,594.969,720.069,595.219Z" transform="translate(-708.041 -587.852)" opacity="0.1"/>
    <path id="Path_1239" data-name="Path 1239" d="M720.935,593.5l-2.887,2.791a12.692,12.692,0,0,0-2.338-6.627l2.387-2.143C718.69,591.565,720.615,593.249,720.935,593.5Z" transform="translate(-708.632 -586.684)" fill="#6c63ff"/>
    <path id="Path_1240" data-name="Path 1240" d="M742.028,592.435c-1.155,1.8-3.3,6.563-3.3,6.563l-2.3-2.845c2.662-1.469,3.763-5.453,3.763-5.453A7.209,7.209,0,0,0,742.028,592.435Z" transform="translate(-722.705 -588.844)" opacity="0.1"/>
    <path id="Path_1241" data-name="Path 1241" d="M741.161,590.729c-1.152,1.806-3.3,6.566-3.3,6.566l-2.29-2.842c2.662-1.466,3.763-5.453,3.763-5.453A7.265,7.265,0,0,0,741.161,590.729Z" transform="translate(-722.121 -587.689)" fill="#6c63ff"/>
    <path id="Path_1242" data-name="Path 1242" d="M746.1,686.14s-.491,4.17-.773,4.407" transform="translate(-728.751 -653.669)" opacity="0.1"/>
    <path id="Path_1243" data-name="Path 1243" d="M760.33,688.43a15.391,15.391,0,0,1,.321,3.673" transform="translate(-738.939 -655.225)" opacity="0.1"/>
    <path id="Path_1244" data-name="Path 1244" d="M723.216,689s-.5,2.8,0,3.121" transform="translate(-713.578 -655.612)" opacity="0.1"/>
    <path id="Path_1245" data-name="Path 1245" d="M713.69,687.71a34.916,34.916,0,0,0-.321,3.9" transform="translate(-707.032 -654.735)" opacity="0.1"/>
    <path id="Path_1246" data-name="Path 1246" d="M759.944,637.47s-1.283,1.01-1.193,1.283" transform="translate(-737.863 -620.611)" opacity="0.1"/>
    <path id="Path_1247" data-name="Path 1247" d="M762.01,639.48s-2.457,2.066-1.229,1.835S762.01,639.48,762.01,639.48Z" transform="translate(-739.012 -621.976)" opacity="0.1"/>
  </g>
  <path id="Path_1248" data-name="Path 1248" d="M199.361,390.381l.016-.022-.029-.022h0l-.173-.115.035.026a.574.574,0,0,0-.757.167l-.071.1h0l-3.9,5.607-.68,1c-2.056-.619-5.4,1.986-7.086,3.48-.106.093-.205.18-.3.263-.135-.3-.215-.494-.215-.494-.083.917-3.323,2.294-4.08,2.794a2.727,2.727,0,0,1-1.129.379c.109-3.487-2.589-7.156-2.589-7.156l-6.592-8.388a7.4,7.4,0,0,1,.674-4.449c.055-.109.109-.218.17-.321h.032a7.294,7.294,0,0,0-.414,2.191c.016.568.542,3.32,1.283,3.208a.4.4,0,0,0,.379-.18,4.475,4.475,0,0,0,.613-2.935,6.014,6.014,0,0,1-.106.946c.048-.9-.055-1.848-.055-2.525,0-.269,0-.536.019-.805h.08v0h.083a8.857,8.857,0,0,0,4.026-1.867,2.159,2.159,0,0,0,1.514-.709,1.472,1.472,0,0,1-.286,1.373,2.4,2.4,0,0,0,1.97-1.533,5.35,5.35,0,0,0,.25-2.566,17.835,17.835,0,0,1-.189-2.608,9.592,9.592,0,0,0,.077-1.421,2.736,2.736,0,0,0-.077-.43h.026a.642.642,0,0,0,.459-.18,2.138,2.138,0,0,0,.577-1.257,10.708,10.708,0,0,0,.34-2.986c-.019.3-.058.613-.1.917a4.035,4.035,0,0,0-.844-3.115,6.149,6.149,0,0,0-1.966-1.248,1.441,1.441,0,0,1-.642-.459,1.857,1.857,0,0,1-.2-.8c-.247-1.687-1.835-2.861-3.416-3.529-2.034-.885-4.491-1.264-6.432-.212a20.414,20.414,0,0,0-2.566,1.96c-1.084.824-2.335,1.4-3.493,2.12a7,7,0,0,0-2.813,2.868c-.85,1.925-.212,4.106-.106,6.194a10.082,10.082,0,0,1-3.865,8.661,3.469,3.469,0,0,0-.85.735.918.918,0,0,0-.071,1.049c.138.18.356.282.507.452a1.437,1.437,0,0,1,.125,1.318,8.267,8.267,0,0,1-2.245,3.8c.048.34.468.475.812.526a18.687,18.687,0,0,0,2.743.2h.395c-.042.106-.087.218-.132.337a10.669,10.669,0,0,0-.927,4.555c.321,1.944,1.347,10.833.84,12.392s.815,12.863.815,12.863.176.873.481,2.175c-.792,1.867-1.7,3.939-2.149,4.77-.911,1.665-.462,10.165,2.678,13.944,0,0,1.283,1.835.962,2.5a3.129,3.129,0,0,0,.058,1.835l.5,11a28.5,28.5,0,0,1-.231,3.362c-1.341,1.658-3.407,4.077-4.379,4.472-1.5.613-12.725,14.223-12.725,14.223s.09.164.266.43l-.321.366-2.152,2.5-.17.2c-.4-.077-3.1-.565-5.229-.719h-.212v-.039a7.981,7.981,0,0,0-2.245.061.722.722,0,0,0-.372.192c-.728.892-1.12,14.89-1.12,14.89s.776,7.009,3.208,7.4a1.282,1.282,0,0,0,.385.071h.106a3.35,3.35,0,0,0,2.887-1.8,2.788,2.788,0,0,0,.241-.642,5.169,5.169,0,0,1,.475-2.97c.757-1.723,2.172-4.754,2.172-4.754s2.566-2.7,2.107-4.006c.071-.106.154-.221.244-.353.962-1.373,2.913-4.083,4.491-5.893a4.653,4.653,0,0,1,.321-.346,7.876,7.876,0,0,0,1.79.516,6.515,6.515,0,0,0,3.307-3.054,18.161,18.161,0,0,1,3.474-4.019l-.051.407-.055,13.389a9.567,9.567,0,0,0,1.649.908v.321a42.979,42.979,0,0,1-.346,5.707l-.048.3c-.2-.141-.372-.189-.481-.08-.494.5-.8,3.7-.831,5.168v.148c-.08,1.469-.917,3.606,1.6,3.715,1.886.08,10.018.2,14.367.266a9.671,9.671,0,0,0,6.415-2.274c1.383-1.184,2.22-2.592.337-3.628-.116-.064-.237-.125-.372-.186l-4.17-.642-7.124-3.638s-.042-2.2-.9-1.835a2.407,2.407,0,0,0-.722.285c-.042-.08-.087-.167-.128-.257a8.2,8.2,0,0,1-.879-3.708,2.623,2.623,0,0,1,.016-.353,7.086,7.086,0,0,0,.59-.606s-.055-5,.507-5.944,2.3-10.5,2.3-10.5a4.528,4.528,0,0,1,1.177-2.832c1.123-1.055.728-4.112.728-4.112a4.944,4.944,0,0,0,2.075-3.554c.5-2.72,2.133-8.661,2.133-8.661s3.365-8.78,3.144-14.332a41.938,41.938,0,0,1,.321-8.446l.7-12.908v-.2c.279.212.468.385.468.385v-.141c.1.087.16.141.16.141s.359-5.857.237-8.18c1.963-.667,4.953-1.764,5.132-2.322.25-.831,3.618-3.458,3.618-3.458a.559.559,0,0,1-.205-.077c.106-.048.215-.106.321-.167,2.207-1.18,6.306-4.632,5.617-6.736l4.491-6.444a1.094,1.094,0,0,0-.112-1.37Z" transform="translate(-119.559 -263.107)" fill="url(#linear-gradient-2)"/>
  <path id="Path_1249" data-name="Path 1249" d="M300.721,486.9a2.926,2.926,0,0,1-1.075.407c-1.4.042-2.566-3.753-2.566-3.753s.4-.4,1.033-.962c1.88-1.671,5.822-4.757,7.67-3.031C307.868,481.491,303.149,485.6,300.721,486.9Z" transform="translate(-231.366 -344.065)" fill="#ecb4b6"/>
  <path id="Path_1250" data-name="Path 1250" d="M222.636,768.827l-5.174,5.585s-4.786.055-3.849-2.585a9.656,9.656,0,0,0,.4-1.758,43.194,43.194,0,0,0,.337-5.652c0-1.238-.019-2.107-.019-2.107s7.535-3.3,6.765.138a6.465,6.465,0,0,0-.154,1.309,8.192,8.192,0,0,0,.86,3.673A8.313,8.313,0,0,0,222.636,768.827Z" transform="translate(-174.59 -535.489)" fill="#ecb4b6"/>
  <path id="Path_1251" data-name="Path 1251" d="M222.636,782.689l-5.174,5.585s-4.786.055-3.849-2.585a9.657,9.657,0,0,0,.4-1.758,11.033,11.033,0,0,1,1.665,2.088s3.3.962,4.209-1.925a4.9,4.9,0,0,1,1.925-2.8A8.316,8.316,0,0,0,222.636,782.689Z" transform="translate(-174.59 -549.351)" opacity="0.1"/>
  <path id="Path_1252" data-name="Path 1252" d="M232.5,790.932a9.412,9.412,0,0,1-6.3,2.245c-4.266-.061-12.238-.186-14.088-.263-2.476-.109-1.655-2.223-1.575-3.679v-.144c.029-1.46.321-4.622.815-5.116s2.184,2.2,2.184,2.2,3.3.962,4.209-1.925,2.752-3.166,2.752-3.166c.837-.362.879,1.816.879,1.816l6.986,3.6,4.1.642c.132.061.25.122.362.183C234.681,788.365,233.859,789.758,232.5,790.932Z" transform="translate(-172.454 -549.183)" fill="#c17174"/>
  <circle id="Ellipse_323" data-name="Ellipse 323" cx="0.302" cy="0.302" r="0.302" transform="translate(46.84 235.593)" fill="#fff" opacity="0.25"/>
  <circle id="Ellipse_324" data-name="Ellipse 324" cx="0.302" cy="0.302" r="0.302" transform="translate(49.675 236.998)" fill="#fff" opacity="0.25"/>
  <circle id="Ellipse_325" data-name="Ellipse 325" cx="0.302" cy="0.302" r="0.302" transform="translate(51.132 237.649)" fill="#fff" opacity="0.25"/>
  <circle id="Ellipse_326" data-name="Ellipse 326" cx="0.302" cy="0.302" r="0.302" transform="translate(54.156 238.81)" fill="#fff" opacity="0.25"/>
  <circle id="Ellipse_327" data-name="Ellipse 327" cx="0.302" cy="0.302" r="0.302" transform="translate(52.617 238.316)" fill="#fff" opacity="0.25"/>
  <path id="Path_1253" data-name="Path 1253" d="M232.5,804.256a9.411,9.411,0,0,1-6.3,2.245c-4.266-.061-12.238-.186-14.088-.263-2.476-.109-1.655-2.223-1.575-3.679l15.548.962s6.367-.962,6.736-2.861C234.681,801.69,233.859,803.082,232.5,804.256Z" transform="translate(-172.454 -562.507)" fill="#c17174"/>
  <path id="Path_1254" data-name="Path 1254" d="M232.5,804.256a9.411,9.411,0,0,1-6.3,2.245c-4.266-.061-12.238-.186-14.088-.263-2.476-.109-1.655-2.223-1.575-3.679l15.548.962s6.367-.962,6.736-2.861C234.681,801.69,233.859,803.082,232.5,804.256Z" transform="translate(-172.454 -562.507)" fill="#fff" opacity="0.25"/>
  <path id="Path_1255" data-name="Path 1255" d="M166.306,734.177a10.738,10.738,0,0,0-1.559,1.565c-1.543,1.79-3.452,4.491-4.4,5.832-.366.526-.587.857-.587.857l-2.066-.3s-2.226-3.41-2.2-3.49,1.764-3.743,1.764-3.743l.67-.786,2.114-2.47.962-1.116S168.17,732.83,166.306,734.177Z" transform="translate(-135.201 -514.866)" fill="#ecb4b6"/>
  <path id="Path_1256" data-name="Path 1256" d="M160.35,749.174c-.366.526-.587.856-.587.856l-2.066-.3s-2.226-3.41-2.2-3.49,1.764-3.75,1.764-3.75l.67-.786.218.042h.526c-1.844,1.925.135,6.159.135,6.159A2.249,2.249,0,0,1,160.35,749.174Z" transform="translate(-135.201 -522.46)" opacity="0.1"/>
  <path id="Path_1257" data-name="Path 1257" d="M144.208,752.261s-1.376,2.97-2.12,4.677a5.164,5.164,0,0,0-.468,2.941,2.887,2.887,0,0,1-.234.642,3.24,3.24,0,0,1-2.816,1.784h-.135c-2.508-.064-3.3-7.346-3.3-7.346s.385-13.861,1.1-14.756a.686.686,0,0,1,.362-.193,7.7,7.7,0,0,1,2.21-.061c2.268.164,5.184.722,5.184.722h.523c-1.844,1.925.135,6.162.135,6.162a2.267,2.267,0,0,1,1.569,1.318C146.9,749.39,144.208,752.261,144.208,752.261Z" transform="translate(-121.366 -521.236)" fill="#c17174"/>
  <circle id="Ellipse_328" data-name="Ellipse 328" cx="0.302" cy="0.302" r="0.302" transform="translate(19.513 226.598)" fill="#fff" opacity="0.25"/>
  <circle id="Ellipse_329" data-name="Ellipse 329" cx="0.302" cy="0.302" r="0.302" transform="translate(19.362 229.001)" fill="#fff" opacity="0.25"/>
  <path id="Path_1258" data-name="Path 1258" d="M140.755,760.331a3.24,3.24,0,0,1-2.816,1.784h-.132c-2.508-.064-3.307-7.346-3.307-7.346s.385-13.861,1.1-14.756a.687.687,0,0,1,.362-.193,7.7,7.7,0,0,1,2.21-.061c-.042,2.493-.16,10.367,0,11.15S139.754,758.242,140.755,760.331Z" transform="translate(-120.938 -521.106)" fill="#c17174"/>
  <path id="Path_1259" data-name="Path 1259" d="M140.755,760.331a3.24,3.24,0,0,1-2.816,1.784h-.132c-2.508-.064-3.307-7.346-3.307-7.346s.385-13.861,1.1-14.756a.687.687,0,0,1,.362-.193,7.7,7.7,0,0,1,2.21-.061c-.042,2.493-.16,10.367,0,11.15S139.754,758.242,140.755,760.331Z" transform="translate(-120.938 -521.106)" fill="#fff" opacity="0.25"/>
  <path id="Path_1260" data-name="Path 1260" d="M137.8,762.374c-2.508-.064-3.307-7.346-3.307-7.346s.385-13.861,1.1-14.756a.686.686,0,0,1,.362-.192c.526.783.988,2.515.571,6.326-.783,7.221.16,7.676.16,7.676A64.24,64.24,0,0,1,137.8,762.374Z" transform="translate(-120.931 -521.36)" fill="#c17174"/>
  <path id="Path_1261" data-name="Path 1261" d="M137.8,762.374c-2.508-.064-3.307-7.346-3.307-7.346s.385-13.861,1.1-14.756a.686.686,0,0,1,.362-.192c.526.783.988,2.515.571,6.326-.783,7.221.16,7.676.16,7.676A64.24,64.24,0,0,1,137.8,762.374Z" transform="translate(-120.931 -521.36)" opacity="0.1"/>
  <path id="Path_1262" data-name="Path 1262" d="M300.721,494.4a2.925,2.925,0,0,1-1.075.407c-1.4.042-2.566-3.753-2.566-3.753s.4-.4,1.033-.962C298.572,491.116,299.835,493.885,300.721,494.4Z" transform="translate(-231.366 -351.56)" opacity="0.1"/>
  <path id="Path_1263" data-name="Path 1263" d="M277.5,492.536a3.527,3.527,0,0,0,1.9-.411c.741-.494,3.92-1.857,4-2.765,0,0,1.9,4.619,2.97,4.786,0,0-3.3,2.6-3.548,3.423s-6.685,2.849-6.685,2.849Z" transform="translate(-217.143 -351.064)" fill="#ff748e"/>
  <path id="Path_1264" data-name="Path 1264" d="M277.5,492.536a3.527,3.527,0,0,0,1.9-.411c.741-.494,3.92-1.857,4-2.765,0,0,1.9,4.619,2.97,4.786,0,0-3.3,2.6-3.548,3.423s-6.685,2.849-6.685,2.849Z" transform="translate(-217.143 -351.064)" opacity="0.1"/>
  <path id="Path_1265" data-name="Path 1265" d="M175.932,734.177a10.737,10.737,0,0,0-1.559,1.565,11.126,11.126,0,0,1-4.7-4.106l.962-1.116S177.8,732.83,175.932,734.177Z" transform="translate(-144.826 -514.866)" opacity="0.1"/>
  <path id="Path_1266" data-name="Path 1266" d="M187.806,669s-4.035,5.392-5.511,6S169.82,689.08,169.82,689.08s2.364,4.347,6.711,5.059a6.421,6.421,0,0,0,3.246-3.025c.882-2.091,7.811-8,7.811-8Z" transform="translate(-144.928 -473.08)" fill="#5e5a6b"/>
  <path id="Path_1267" data-name="Path 1267" d="M187.806,669s-4.035,5.392-5.511,6S169.82,689.08,169.82,689.08s2.364,4.347,6.711,5.059a6.421,6.421,0,0,0,3.246-3.025c.882-2.091,7.811-8,7.811-8Z" transform="translate(-144.928 -473.08)" opacity="0.1"/>
  <path id="Path_1268" data-name="Path 1268" d="M187.78,725.2a17.589,17.589,0,0,0,3.673,0C193.625,724.993,191.989,726.315,187.78,725.2Z" transform="translate(-157.127 -511.239)" opacity="0.1"/>
  <path id="Path_1269" data-name="Path 1269" d="M184.69,729.62s2.887,1.649,4,.824S187.619,731.24,184.69,729.62Z" transform="translate(-155.028 -514.255)" opacity="0.1"/>
  <path id="Path_1270" data-name="Path 1270" d="M222.885,762.434a6.464,6.464,0,0,0-.154,1.309c-2.229,2.024-4.914,1.4-6.592.661,0-1.238-.019-2.107-.019-2.107S223.655,758.983,222.885,762.434Z" transform="translate(-176.376 -535.477)" opacity="0.1"/>
  <path id="Path_1271" data-name="Path 1271" d="M231.234,541.174l-.08,1.521-.686,12.783a40.184,40.184,0,0,0-.321,8.359c.231,5.5-3.092,14.21-3.092,14.21s-1.6,5.886-2.091,8.581a4.909,4.909,0,0,1-2.034,3.529s.385,3.025-.715,4.071a4.514,4.514,0,0,0-1.155,2.8s-1.707,9.463-2.245,10.4-.5,5.886-.5,5.886c-3.573,4.234-8.8.385-8.8.385l.055-13.258s1.485-12.212,2.585-13.918,1.1-6.38,1.1-6.38l-.491-10.906a2.939,2.939,0,0,1-.055-1.816c.337-.661-.94-2.473-.94-2.473-3.083-3.743-3.529-12.161-2.627-13.793s3.567-8.25,3.567-8.25l3.679-2.146,6.65.2Z" transform="translate(-171.358 -385.977)" fill="#5e5a6b"/>
  <path id="Path_1272" data-name="Path 1272" d="M230.1,744.15s.869,3.012,1.569,3.342S230.1,744.15,230.1,744.15Z" transform="translate(-185.872 -524.124)" opacity="0.1"/>
  <path id="Path_1273" data-name="Path 1273" d="M233.83,712.9s2.245,1.777,3.208,1.774S233.83,712.9,233.83,712.9Z" transform="translate(-188.405 -502.898)" opacity="0.1"/>
  <path id="Path_1274" data-name="Path 1274" d="M238.748,435.49v3.631l-2.4-1.033-2.39-1.03-5.2-5.116a39.39,39.39,0,0,1-6.316-5.107c-1.257-1.389-1.889-2.7-.783-3.394a6.9,6.9,0,0,0,1.44-1.261,23.683,23.683,0,0,0,2.868-4.234c.035-.061.071-.122.1-.183,1.071-1.966,1.78-3.644,1.78-3.644a21.681,21.681,0,0,1,4.953,2.335c.157.109.3.221.446.337,1.081.885,1.62,1.925.622,2.938a7.7,7.7,0,0,0-.709.847h0a6.962,6.962,0,0,0-.443.693c-.058.109-.115.215-.167.321a7.4,7.4,0,0,0-.661,4.4Z" transform="translate(-179.751 -299.959)" fill="#ecb4b6"/>
  <path id="Path_1275" data-name="Path 1275" d="M274.475,395.566c.125.218.3.4.414.626a3.006,3.006,0,0,1,.183,1.54,8.755,8.755,0,0,0,.16,2.457,11.452,11.452,0,0,1,.513,2.168,5.689,5.689,0,0,1-1.036,2.929,2.108,2.108,0,0,0,1.508-.7,1.463,1.463,0,0,1-.276,1.357,2.332,2.332,0,0,0,1.925-1.517,5.289,5.289,0,0,0,.247-2.566,17.513,17.513,0,0,1-.186-2.582,9.439,9.439,0,0,0,.074-1.408,5.109,5.109,0,0,0-1.206-2.5l-1.116-1.533a.789.789,0,0,0-.321-.292C274.3,393.09,274.18,395.033,274.475,395.566Z" transform="translate(-215.918 -285.935)" fill="#464353"/>
  <path id="Path_1276" data-name="Path 1276" d="M244.264,419.717a7.7,7.7,0,0,0-.709.847h0a6.949,6.949,0,0,0-.443.693c-.058.109-.115.215-.167.321a8.661,8.661,0,0,1-6.483-3.5c-.035-.048-.071-.1-.1-.147.035-.061.071-.122.1-.183,1.071-1.966,1.78-3.644,1.78-3.644a21.682,21.682,0,0,1,4.953,2.335c.157.109.3.221.446.337C244.71,417.664,245.249,418.69,244.264,419.717Z" transform="translate(-190.124 -299.946)" opacity="0.1"/>
  <path id="Path_1277" data-name="Path 1277" d="M248.695,391.113a8.661,8.661,0,0,1-7.094,8.52,8.763,8.763,0,0,1-1.57.141h-.321a8.661,8.661,0,1,1,8.982-8.661Z" transform="translate(-186.734 -278.454)" fill="#ecb4b6"/>
  <path id="Path_1278" data-name="Path 1278" d="M255.179,459.192s4.363,2.46,3.246.385l-5.694-8.417h0l6.464,8.3s4.125,5.668,1.87,9.572c0,0-.321,3.246.055,4.016s-.109,8.982-.109,8.982-1.543-1.431-2.367-1.158-6.643.76-6.643.76Z" transform="translate(-200.747 -325.118)" opacity="0.1"/>
  <path id="Path_1279" data-name="Path 1279" d="M260.948,541.534l-.08,1.52c-.523-.379-1.251-.8-1.735-.642-.824.276-6.653.773-6.653.773l.266-1.9Z" transform="translate(-201.073 -386.337)" opacity="0.1"/>
  <path id="Path_1280" data-name="Path 1280" d="M255.669,459.192s4.366,2.46,3.246.385l-5.694-8.417h0l6.464,8.3s4.125,5.668,1.87,9.572c0,0-.321,3.246.055,4.016s-.109,8.982-.109,8.982-1.54-1.431-2.364-1.158-6.656.773-6.656.773Z" transform="translate(-201.073 -325.118)" fill="#464353"/>
  <path id="Path_1281" data-name="Path 1281" d="M229.839,455.654a30.049,30.049,0,0,1-1.341,5.793s-.77,7.811-1.767,10.133-.552,5.5-1.1,11.388a7.45,7.45,0,0,1-1.8,4.558,6.757,6.757,0,0,1-5.383,1.854l-.4-.032c-2.752-.273-5.392-13.53-5.392-13.53s-1.264-11.278-.77-12.831-.488-10.332-.818-12.257a10.647,10.647,0,0,1,.908-4.51c.286-.751.52-1.283.52-1.283a13.291,13.291,0,0,1,2.476-4.51,2.271,2.271,0,0,1,1.633-.686,4.083,4.083,0,0,1,2.037.642.565.565,0,0,1,.071.048s10.015,10.233,10.948,12.6A6.049,6.049,0,0,1,229.839,455.654Z" transform="translate(-172.911 -317.361)" opacity="0.1"/>
  <path id="Path_1282" data-name="Path 1282" d="M228.812,455.157a30.214,30.214,0,0,1-1.344,5.79s-.77,7.814-1.761,10.124-.549,5.5-1.1,11.388a7.467,7.467,0,0,1-1.8,4.558,6.768,6.768,0,0,1-5.383,1.854l-.4-.032c-2.752-.276-5.392-13.534-5.392-13.534s-1.264-11.275-.77-12.815-.494-10.342-.824-12.27a10.656,10.656,0,0,1,.908-4.51c.285-.751.52-1.267.52-1.267a13.291,13.291,0,0,1,2.476-4.51,2.246,2.246,0,0,1,1.633-.683,4.016,4.016,0,0,1,2.037.642l.071.045s10.015,10.233,10.948,12.6A5.924,5.924,0,0,1,228.812,455.157Z" transform="translate(-172.212 -317.028)" fill="#ff748e"/>
  <path id="Path_1283" data-name="Path 1283" d="M227.011,614.38s-2.271,2.021-3.054,1.925S227.011,614.38,227.011,614.38Z" transform="translate(-181.628 -435.981)" opacity="0.1"/>
  <path id="Path_1284" data-name="Path 1284" d="M228.76,620.363a32.534,32.534,0,0,1-3.108,1.283C224.937,621.819,227.837,620.077,228.76,620.363Z" transform="translate(-182.774 -440.023)" opacity="0.1"/>
  <path id="Path_1285" data-name="Path 1285" d="M264.44,525.65s3.548.042,4.083,1.155S265.582,525.195,264.44,525.65Z" transform="translate(-209.196 -375.678)" opacity="0.1"/>
  <path id="Path_1286" data-name="Path 1286" d="M262.89,531.8a12.9,12.9,0,0,1,3.548,1.238C267.262,533.7,262.89,531.8,262.89,531.8Z" transform="translate(-208.143 -379.891)" opacity="0.1"/>
  <path id="Path_1287" data-name="Path 1287" d="M244.684,510.84s-.321,11.179-1.546,12.626S244.684,510.84,244.684,510.84Z" transform="translate(-194.515 -365.654)" opacity="0.1"/>
  <path id="Path_1288" data-name="Path 1288" d="M237.9,607.757s-2.278,9.861,2.29,10.47S243.345,607,243.345,607Z" transform="translate(-190.782 -430.968)" opacity="0.1"/>
  <path id="Path_1289" data-name="Path 1289" d="M237.389,607.26s-2.265,9.861,2.294,10.477,3.153-11.227,3.153-11.227Z" transform="translate(-190.44 -430.636)" fill="#ecb4b6"/>
  <path id="Path_1290" data-name="Path 1290" d="M236.143,390.166a3.337,3.337,0,0,1-.321-.6c-.606-1.264-2.165-.642-3.307-.042l-.609.786a4.891,4.891,0,0,0-.7,1.075,8.127,8.127,0,0,0-.292.962c-.157.558-.388,1.091-.6,1.636a19.018,19.018,0,0,0-1.216,5.658,8.76,8.76,0,0,1-1.572.141h-.038v-.038c.058-.218.106-.439.151-.661h0a11.444,11.444,0,0,0,.087-3.785v-.083c-.042-.279-.1-.561-.119-.84-.106.193-.209.388-.321.587a6.285,6.285,0,0,1-2.717,3.128,5.571,5.571,0,0,1-1.652.372,9.425,9.425,0,0,0-2.066.343,1.283,1.283,0,0,0-.6.362,1.77,1.77,0,0,0-.3.9,7.291,7.291,0,0,1-.321,1.254,11,11,0,0,1-2.694,4.016l-.3.289a5.584,5.584,0,0,1-1.784,1.235,5.452,5.452,0,0,1-1.889.282c.285-.751.52-1.267.52-1.267a13.29,13.29,0,0,1,2.476-4.51,2.245,2.245,0,0,1,1.633-.683,24.228,24.228,0,0,0,2.97-4.417,8.661,8.661,0,1,1,15.58-6.095Z" transform="translate(-174.236 -278.462)" opacity="0.1"/>
  <path id="Path_1291" data-name="Path 1291" d="M228.768,370.929a5.91,5.91,0,0,0-1.925-1.235,1.467,1.467,0,0,1-.625-.456,1.905,1.905,0,0,1-.192-.786c-.241-1.674-1.8-2.832-3.349-3.512-2-.876-4.391-1.251-6.306-.212a20.464,20.464,0,0,0-2.505,1.944c-1.065.815-2.29,1.386-3.426,2.1a6.73,6.73,0,0,0-2.759,2.842c-.834,1.893-.209,4.064-.1,6.13a10.08,10.08,0,0,1-3.792,8.59,3.31,3.31,0,0,0-.834.728.914.914,0,0,0-.067,1.036c.132.18.35.282.494.449a1.425,1.425,0,0,1,.122,1.309,8.187,8.187,0,0,1-2.2,3.763c.045.34.455.471.792.523a17.988,17.988,0,0,0,2.691.2,4.523,4.523,0,0,0,3.763-1.517,10.218,10.218,0,0,0,3.323-5.559,1.831,1.831,0,0,1,.3-.9,1.358,1.358,0,0,1,.6-.363c1.2-.411,2.566-.208,3.718-.715,1.5-.641,2.245-2.245,3.031-3.715.026.279.077.561.122.844a11.407,11.407,0,0,1-.225,4.529,9.4,9.4,0,0,0-.5,2.534c.016.642.667,3.994,1.524,2.99s.542-3.224.542-4.468a19.1,19.1,0,0,1,1.261-6.816c.205-.542.439-1.078.6-1.636a8.763,8.763,0,0,1,.289-.962,5.03,5.03,0,0,1,.7-1.075l.613-.786c1.142-.606,2.7-1.222,3.307.042.231.484.356,1.02.962.549a2.155,2.155,0,0,0,.565-1.245C229.653,374.313,229.968,372.257,228.768,370.929Z" transform="translate(-166.31 -265.985)" fill="#464353"/>
  <path id="Path_1292" data-name="Path 1292" d="M226.741,468.877a5.383,5.383,0,0,0-10.46-1.546.817.817,0,0,0-.038.115c-1.267,3.795-.715,13.405-.715,13.405s.164,6.454.77,8.6,2.31,8.3,2.31,9.3,1.581,4.786,2.245,5.062,1,2.419,1.164,2.8.642,5.392.642,5.392,6.217-.385,6.326-1.376-1.376-5.832-1.376-5.832a11.222,11.222,0,0,1-1.235-3.573c-.141-1.594-1-2.319-.831-3.419s-.5-1.649-.5-2.364a17.6,17.6,0,0,0-.494-2.64s-1.046-.828-.879-1.816-1.485-2.97-1.046-3.686a7.442,7.442,0,0,0,.549-2.476s.552-7.92.937-10.066,2.64-5.61,2.64-5.61S226.748,469.054,226.741,468.877Z" transform="translate(-175.892 -333.648)" opacity="0.1"/>
  <path id="Path_1293" data-name="Path 1293" d="M225.092,503.281a6.768,6.768,0,0,1-5.383,1.854c-.2-.751-.488-1.675-.908-1.848-.667-.276-2.245-4.071-2.245-5.059s-1.7-7.153-2.31-9.3-.77-8.6-.77-8.6-.552-9.623.715-13.408a.334.334,0,0,1,.039-.112c1.925-5.607,10.226-4.379,10.46,1.546v.273s-2.245,3.464-2.64,5.61-.93,10.066-.93,10.066a7.474,7.474,0,0,1-.552,2.476c-.439.715,1.209,2.7,1.046,3.686a2.26,2.26,0,0,0,.879,1.816,17.577,17.577,0,0,1,.494,2.643c0,.719.661,1.264.5,2.364s.715,1.816.856,3.41A8.892,8.892,0,0,0,225.092,503.281Z" transform="translate(-174.5 -333.292)" opacity="0.1"/>
  <path id="Path_1294" data-name="Path 1294" d="M225.711,468.368a5.383,5.383,0,0,0-10.46-1.546l-.038.112c-1.267,3.8-.715,13.408-.715,13.408s.164,6.451.77,8.6,2.31,8.308,2.31,9.3,1.581,4.786,2.245,5.062,1,2.422,1.164,2.807.642,5.389.642,5.389,6.217-.385,6.326-1.373-1.373-5.832-1.373-5.832a11.225,11.225,0,0,1-1.238-3.577c-.141-1.594-1.02-2.31-.853-3.41s-.5-1.652-.5-2.367a17.6,17.6,0,0,0-.494-2.64,2.244,2.244,0,0,1-.879-1.816c.167-.991-1.485-2.97-1.046-3.686a7.429,7.429,0,0,0,.549-2.473s.552-7.923.937-10.069,2.64-5.61,2.64-5.61A1.4,1.4,0,0,0,225.711,468.368Z" transform="translate(-175.192 -333.302)" fill="#ff748e"/>
  <path id="Path_1295" data-name="Path 1295" d="M217.88,521.158c.164-.167,3.3-3.631,4.289-2.393S217.88,521.158,217.88,521.158Z" transform="translate(-177.571 -370.856)" opacity="0.1"/>
  <path id="Path_1296" data-name="Path 1296" d="M218.78,530.132c.122-.125,3.134-.247,3.878-1.925S218.78,530.132,218.78,530.132Z" transform="translate(-178.183 -377.148)" opacity="0.1"/>
  <g id="Group_489" data-name="Group 489" transform="translate(35.083 107.12)" opacity="0.1">
    <path id="Path_1297" data-name="Path 1297" d="M206.746,437.518a.85.85,0,0,1,.164.3,1.283,1.283,0,0,0-.164-1.123c-.148-.17-.363-.269-.5-.449l-.026-.045a.85.85,0,0,0,.026.869C206.4,437.249,206.6,437.352,206.746,437.518Z" transform="translate(-204.664 -422.076)"/>
    <path id="Path_1298" data-name="Path 1298" d="M220.471,397.817v-.937c-.058-1.123-.266-2.274-.321-3.4a41.1,41.1,0,0,0,.321,4.225C220.471,397.737,220.467,397.772,220.471,397.817Z" transform="translate(-214.19 -393.06)"/>
    <path id="Path_1299" data-name="Path 1299" d="M258.023,444.228c-.763.895-1.363-1.681-1.495-2.7a4.235,4.235,0,0,0-.029.532c.019.642.667,3.994,1.524,2.99a4.4,4.4,0,0,0,.6-2.906A3.459,3.459,0,0,1,258.023,444.228Z" transform="translate(-238.886 -425.697)"/>
    <path id="Path_1300" data-name="Path 1300" d="M219.932,417.631a11.044,11.044,0,0,1,.119,1.3,11.274,11.274,0,0,0-.119-2.13c-.042-.279-.1-.561-.122-.844-.792,1.482-1.527,3.067-3.028,3.718-1.164.5-2.521.3-3.718.715a1.283,1.283,0,0,0-.6.362,1.789,1.789,0,0,0-.3.9,10.261,10.261,0,0,1-3.326,5.559,4.523,4.523,0,0,1-3.763,1.517,18.376,18.376,0,0,1-2.688-.2,2.036,2.036,0,0,1-.4-.106c-.125.141-.257.276-.391.407.045.34.459.472.8.523a17.97,17.97,0,0,0,2.688.2,4.523,4.523,0,0,0,3.763-1.517,10.242,10.242,0,0,0,3.326-5.559,1.8,1.8,0,0,1,.3-.9,1.322,1.322,0,0,1,.6-.362c1.2-.411,2.566-.208,3.718-.715,1.5-.642,2.245-2.245,3.028-3.715C219.836,417.067,219.89,417.349,219.932,417.631Z" transform="translate(-201.59 -408.329)"/>
    <path id="Path_1301" data-name="Path 1301" d="M271.232,394.3a2.168,2.168,0,0,1-.568,1.245c-.6.468-.725-.064-.962-.549-.606-1.264-2.165-.642-3.307-.042l-.613.786a4.892,4.892,0,0,0-.7,1.075,7.562,7.562,0,0,0-.289.962c-.16.558-.391,1.091-.6,1.633a19.2,19.2,0,0,0-1.257,6.816v.34a19.152,19.152,0,0,1,1.254-6.329c.209-.542.439-1.078.6-1.636a7.569,7.569,0,0,1,.289-.962,4.891,4.891,0,0,1,.7-1.075l.613-.786c1.142-.606,2.7-1.222,3.307.042.234.484.356,1.02.962.548a2.159,2.159,0,0,0,.568-1.245,10.878,10.878,0,0,0,.321-2.957A14.144,14.144,0,0,1,271.232,394.3Z" transform="translate(-243.26 -392.17)"/>
  </g>
  <path id="Path_1302" data-name="Path 1302" d="M311.9,470.3l.17.115a.68.68,0,0,1-.176-.962l7.647-11.08a.677.677,0,0,1,.946-.173l-.17-.119a1.094,1.094,0,0,1,.279,1.52l-7.176,10.416A1.1,1.1,0,0,1,311.9,470.3Z" transform="translate(-241.34 -329.818)" fill="#464353"/>
  <path id="Path_1303" data-name="Path 1303" d="M.558,0H.715V14.839H.558A.558.558,0,0,1,0,14.281V.561A.558.558,0,0,1,.558,0Z" transform="translate(78.597 127.99) rotate(34.56)" fill="#9f9eff"/>
  <rect id="Rectangle_248" data-name="Rectangle 248" width="0.138" height="1.209" rx="0.069" transform="translate(78.042 129.929) rotate(34.56)" fill="#464353"/>
  <path id="Path_1304" data-name="Path 1304" d="M818.16,328.527A5.54,5.54,0,1,1,812.62,323a5.54,5.54,0,0,1,5.54,5.527Zm-6.181,2.932,4.112-4.109a.359.359,0,0,0,0-.5l-.507-.507a.353.353,0,0,0-.5,0l-3.352,3.352-1.565-1.559a.362.362,0,0,0-.507,0l-.5.507a.353.353,0,0,0,0,.5l2.322,2.322a.353.353,0,0,0,.5,0Z" transform="translate(-577.771 -238.068)" fill="#3acc6c"/>
  <path id="Path_1305" data-name="Path 1305" d="M608.949,518.04a5.54,5.54,0,1,1-5.54-5.54A5.54,5.54,0,0,1,608.949,518.04Zm-6.181,2.932,4.125-4.109a.356.356,0,0,0,0-.507l-.52-.488a.356.356,0,0,0-.507,0l-3.352,3.336-1.565-1.565a.353.353,0,0,0-.5,0l-.507.5a.363.363,0,0,0,0,.507l2.322,2.322a.356.356,0,0,0,.507,0Z" transform="translate(-435.67 -366.782)" fill="#3acc6c"/>
  <path id="Path_1306" data-name="Path 1306" d="M608.949,706.7a5.54,5.54,0,1,1-5.54-5.54A5.54,5.54,0,0,1,608.949,706.7Zm-6.181,2.932,4.125-4.109a.356.356,0,0,0,0-.507l-.5-.5a.356.356,0,0,0-.507,0l-3.352,3.352-1.565-1.565a.353.353,0,0,0-.5,0l-.507.5a.363.363,0,0,0,0,.507l2.322,2.322a.356.356,0,0,0,.507,0Z" transform="translate(-435.67 -494.924)" fill="#3acc6c"/>
</svg>
