<svg id="undraw_add_to_cart_vkjp" xmlns="http://www.w3.org/2000/svg" xmlns:xlink="http://www.w3.org/1999/xlink" width="301.354" height="231.4" viewBox="0 0 301.354 231.4">
  <defs>
    <linearGradient id="linear-gradient" x1="0.5" y1="1" x2="0.5" gradientUnits="objectBoundingBox">
      <stop offset="0" stop-color="gray" stop-opacity="0.251"/>
      <stop offset="0.54" stop-color="gray" stop-opacity="0.122"/>
      <stop offset="1" stop-color="gray" stop-opacity="0.102"/>
    </linearGradient>
    <linearGradient id="linear-gradient-2" x1="0.5" x2="0.5" xlink:href="#linear-gradient"/>
  </defs>
  <path id="Path_1308" data-name="Path 1308" d="M413.814,179.338c-.27.2-.518.389-.783.575a26.4,26.4,0,0,1-3.059,1.866c-5.556,2.929-12.406,4.36-19.077,5.332-14.962,2.181-30.238,2.605-45.448,3.021-41.1,1.129-82.3,2.254-123.3-.346-16.2-1.026-32.754-2.743-47.433-8.008q-3.156-1.129-6.188-2.489a50.82,50.82,0,0,1-11.285-6.749,24.572,24.572,0,0,1-7.046-8.656c-3.1-6.814-1.461-14.468,2.082-21.148a65.717,65.717,0,0,1,4.965-7.767c2.735-3.761,5.751-7.414,8.5-11.172,9.789-13.359,16.177-30.259,7.141-43.961-2.6-3.936-6.35-7.392-8.467-11.5-2.7-5.257-2.492-11.093-1.633-16.763q.167-1.08.354-2.138c1.466-8.407,4.225-17.465,12.732-22.713,8.836-5.454,21.385-5.178,32.352-3.24,17.055,3.045,32.786,9.385,48.686,15.108S289.443,49.542,306.916,50.1c15.429.5,33.426-3.221,43.667-12.883,9.946-9.384,28.642-10.1,42.117-4.43,9.25,3.89,16.15,10.9,19.061,18.783a24.517,24.517,0,0,1,1.266,4.892,22.559,22.559,0,0,1,.227,4.614c-.041.761-.119,1.515-.227,2.26-2.252,15.556-18.459,27.827-28.31,41.723-4.814,6.787-8.213,14.941-4.9,22.26,5.049,11.153,22.605,15.119,33.208,23.418a24.945,24.945,0,0,1,5.211,5.346C423.374,163.471,421.476,173.447,413.814,179.338Z" transform="translate(-119.76 -22.005)" fill="#6c63ff" opacity="0.1"/>
  <g id="flowers" transform="translate(0 0)">
    <path id="Path_1309" data-name="Path 1309" d="M147.783,202.608S135.364,180.6,116.649,174.26a38.279,38.279,0,0,1-19.4-14.509A64.256,64.256,0,0,1,91.53,149.46" transform="translate(-78.128 -114.897)" fill="none" stroke="#535461" stroke-miterlimit="10" stroke-width="2"/>
    <path id="Path_1310" data-name="Path 1310" d="M43.523,109.411c2.133,2.06,12.063,4.22,12.063,4.22s-2.43-9.86-4.568-11.93a5.38,5.38,0,1,0-7.495,7.722Z" transform="translate(-41.89 -78.922)" fill="#6c63ff"/>
    <path id="Path_1311" data-name="Path 1311" d="M57.027,171.642c2.913.578,12.419-3.021,12.419-3.021s-7.411-6.955-10.327-7.532a5.38,5.38,0,1,0-2.093,10.555Z" transform="translate(-49.775 -123.31)" fill="#6c63ff"/>
    <path id="Path_1312" data-name="Path 1312" d="M124.725,243.852c2.808-.972,9.179-8.874,9.179-8.874s-9.9-2.265-12.708-1.293a5.381,5.381,0,1,0,3.51,10.167Z" transform="translate(-97.023 -176.206)" fill="#6c63ff"/>
    <path id="Path_1313" data-name="Path 1313" d="M197.079,284.366c2.932-.486,10.556-7.195,10.556-7.195s-9.376-3.907-12.308-3.423a5.381,5.381,0,0,0,1.752,10.618Z" transform="translate(-150.613 -205.6)" fill="#6c63ff"/>
    <path id="Path_1314" data-name="Path 1314" d="M116.3,145.869c0,2.97-5.373,11.59-5.373,11.59s-5.383-8.615-5.386-11.585a5.381,5.381,0,1,1,10.759,0Z" transform="translate(-88.352 -108.264)" fill="#6c63ff"/>
    <path id="Path_1315" data-name="Path 1315" d="M197.783,191.635c-.888,2.835-8.6,9.449-8.6,9.449s-2.559-9.841-1.682-12.689a5.381,5.381,0,0,1,10.259,3.215Z" transform="translate(-148.058 -140.728)" fill="#6c63ff"/>
    <path id="Path_1316" data-name="Path 1316" d="M269.029,252.061c-.394,2.945-6.874,10.767-6.874,10.767s-4.185-9.255-3.78-12.2a5.38,5.38,0,1,1,10.665,1.434Z" transform="translate(-199.908 -185.346)" fill="#6c63ff"/>
    <path id="Path_1317" data-name="Path 1317" d="M43.523,109.411c2.133,2.06,12.063,4.22,12.063,4.22s-2.43-9.86-4.568-11.93a5.38,5.38,0,1,0-7.495,7.722Z" transform="translate(-41.89 -78.922)" opacity="0.25"/>
    <path id="Path_1318" data-name="Path 1318" d="M57.027,171.642c2.913.578,12.419-3.021,12.419-3.021s-7.411-6.955-10.327-7.532a5.38,5.38,0,1,0-2.093,10.555Z" transform="translate(-49.775 -123.31)" opacity="0.25"/>
    <path id="Path_1319" data-name="Path 1319" d="M124.725,243.852c2.808-.972,9.179-8.874,9.179-8.874s-9.9-2.265-12.708-1.293a5.381,5.381,0,1,0,3.51,10.167Z" transform="translate(-97.023 -176.206)" opacity="0.25"/>
    <path id="Path_1320" data-name="Path 1320" d="M197.079,284.366c2.932-.486,10.556-7.195,10.556-7.195s-9.376-3.907-12.308-3.423a5.381,5.381,0,0,0,1.752,10.618Z" transform="translate(-150.613 -205.6)" opacity="0.25"/>
    <path id="Path_1321" data-name="Path 1321" d="M116.3,145.869c0,2.97-5.373,11.59-5.373,11.59s-5.383-8.615-5.386-11.585a5.381,5.381,0,1,1,10.759,0Z" transform="translate(-88.352 -108.264)" opacity="0.25"/>
    <path id="Path_1322" data-name="Path 1322" d="M197.783,191.635c-.888,2.835-8.6,9.449-8.6,9.449s-2.559-9.841-1.682-12.689a5.381,5.381,0,0,1,10.259,3.215Z" transform="translate(-148.058 -140.728)" opacity="0.25"/>
    <path id="Path_1323" data-name="Path 1323" d="M269.029,252.061c-.394,2.945-6.874,10.767-6.874,10.767s-4.185-9.255-3.78-12.2a5.38,5.38,0,1,1,10.665,1.434Z" transform="translate(-199.908 -185.346)" opacity="0.25"/>
    <path id="Path_1324" data-name="Path 1324" d="M216.427,151.661S214,126.5,199.45,113.124A38.267,38.267,0,0,1,187.6,92,64.3,64.3,0,0,1,186.54,80.27" transform="translate(-147.487 -64.387)" fill="none" stroke="#535461" stroke-miterlimit="10" stroke-width="2"/>
    <path id="Path_1325" data-name="Path 1325" d="M151.71,28.838c1.112,2.756,9.322,8.737,9.322,8.737s1.768-10,.659-12.759a5.384,5.384,0,0,0-9.989,4.023Z" transform="translate(-121.769 -21.441)" fill="#6c63ff"/>
    <path id="Path_1326" data-name="Path 1326" d="M138.834,91.233c2.43,1.709,12.573,2.268,12.573,2.268s-3.934-9.358-6.363-11.066a5.385,5.385,0,1,0-6.21,8.8Z" transform="translate(-110.997 -65.248)" fill="#6c63ff"/>
    <path id="Path_1327" data-name="Path 1327" d="M171.659,184.7c2.97.251,12-4.39,12-4.39s-8.135-6.083-11.1-6.331a5.381,5.381,0,1,0-.9,10.721Z" transform="translate(-132.938 -132.774)" fill="#6c63ff"/>
    <path id="Path_1328" data-name="Path 1328" d="M221.255,250.976c2.878.745,12.568-2.3,12.568-2.3s-6.99-7.37-9.865-8.116a5.38,5.38,0,1,0-2.7,10.417Z" transform="translate(-169.888 -181.276)" fill="#6c63ff"/>
    <path id="Path_1329" data-name="Path 1329" d="M203.3,91.986c-1.2,2.716-9.609,8.415-9.609,8.415s-1.431-10.054-.229-12.773a5.38,5.38,0,1,1,9.839,4.358Z" transform="translate(-152.189 -67.421)" fill="#6c63ff"/>
    <path id="Path_1330" data-name="Path 1330" d="M253.4,165.97c-1.96,2.233-11.687,5.157-11.687,5.157s1.641-10.022,3.6-12.254a5.379,5.379,0,1,1,8.083,7.1Z" transform="translate(-187.763 -120.433)" fill="#6c63ff"/>
    <path id="Path_1331" data-name="Path 1331" d="M298.206,250.624c-1.555,2.532-10.648,7.057-10.648,7.057s-.076-10.157,1.479-12.689a5.385,5.385,0,0,1,9.179,5.632Z" transform="translate(-221.232 -182.762)" fill="#6c63ff"/>
  </g>
  <ellipse id="Ellipse_330" data-name="Ellipse 330" cx="30.111" cy="3.92" rx="30.111" ry="3.92" transform="translate(80.087 222.107)" fill="#6c63ff" opacity="0.1"/>
  <g id="floor_flowers" data-name="floor flowers" transform="translate(39.462 208.289)">
    <ellipse id="Ellipse_331" data-name="Ellipse 331" cx="9.147" cy="1.566" rx="9.147" ry="1.566" transform="translate(0.768 15.869)" fill="#6c63ff" opacity="0.1"/>
    <path id="Path_1332" data-name="Path 1332" d="M221.092,792.94s1.482,1.941-.686,4.86-3.955,5.4-3.24,7.227c0,0,3.269-5.44,5.94-5.516S224.024,796.212,221.092,792.94Z" transform="translate(-209.191 -792.94)" fill="#6c63ff"/>
    <path id="Path_1333" data-name="Path 1333" d="M221.336,792.94a2.384,2.384,0,0,1,.3.61c2.6,3.051,3.982,5.9,1.485,5.969-2.325.068-5.116,4.225-5.783,5.275a2.49,2.49,0,0,0,.078.24s3.269-5.44,5.94-5.516S224.268,796.212,221.336,792.94Z" transform="translate(-209.434 -792.94)" opacity="0.1"/>
    <path id="Path_1334" data-name="Path 1334" d="M241.423,800.9c0,.683-.076,1.237-.17,1.237s-.173-.54-.173-1.237.1-.362.192-.362S241.423,800.221,241.423,800.9Z" transform="translate(-226.765 -798.431)" fill="#ffd037"/>
    <path id="Path_1335" data-name="Path 1335" d="M242.69,803.851c-.6.327-1.123.524-1.169.44s.4-.416,1-.742.362-.089.408,0S243.29,803.524,242.69,803.851Z" transform="translate(-227.085 -800.562)" fill="#ffd037"/>
    <path id="Path_1336" data-name="Path 1336" d="M194.115,792.94s-1.482,1.941.686,4.86,3.955,5.4,3.24,7.227c0,0-3.269-5.44-5.94-5.516S191.188,796.212,194.115,792.94Z" transform="translate(-190.048 -792.94)" fill="#6c63ff"/>
    <path id="Path_1337" data-name="Path 1337" d="M194.1,792.94a2.384,2.384,0,0,0-.3.61c-2.6,3.051-3.982,5.9-1.485,5.969,2.327.068,5.116,4.225,5.783,5.275a1.92,1.92,0,0,1-.078.24s-3.269-5.44-5.94-5.516S191.172,796.212,194.1,792.94Z" transform="translate(-190.032 -792.94)" opacity="0.1"/>
    <path id="Path_1338" data-name="Path 1338" d="M192.91,800.9c0,.683.076,1.237.17,1.237s.173-.54.173-1.237-.1-.362-.192-.362S192.91,800.221,192.91,800.9Z" transform="translate(-191.6 -798.431)" fill="#ffd037"/>
    <path id="Path_1339" data-name="Path 1339" d="M188.422,803.851c.6.327,1.12.524,1.166.44s-.4-.416-1-.742-.362-.089-.408,0S187.823,803.524,188.422,803.851Z" transform="translate(-188.057 -800.562)" fill="#ffd037"/>
    <path id="Path_1340" data-name="Path 1340" d="M194.66,830.738s4.147-.13,5.4-1.018,6.377-1.955,6.687-.526,6.231,7.1,1.55,7.135-10.877-.729-12.125-1.488S194.66,830.738,194.66,830.738Z" transform="translate(-192.877 -818.897)" fill="#a8a8a8"/>
    <path id="Path_1341" data-name="Path 1341" d="M208.378,841.88c-4.681.038-10.878-.729-12.125-1.488-.95-.58-1.328-2.657-1.455-3.612h-.138s.27,3.342,1.509,4.1,7.443,1.525,12.125,1.488c1.35,0,1.82-.491,1.793-1.2C209.9,841.6,209.385,841.872,208.378,841.88Z" transform="translate(-192.877 -824.944)" opacity="0.2"/>
    <path id="Path_1342" data-name="Path 1342" d="M680.079,836.17s-11.415-.688-10.068,7.311a1.946,1.946,0,0,0,1.012,2.055s.022-.591,1.172-.391a5.224,5.224,0,0,0,1.239.059,2.564,2.564,0,0,0,1.517-.626h0s3.207-1.323,4.455-6.569c0,0,.923-1.145.888-1.439l-1.928.81a3.456,3.456,0,0,1,.14,2.546s-.062-2.495-.432-2.43c-.076,0-1,.481-1,.481s1.134,2.43.27,4.179c0,0,.324-2.97-.632-4l-1.35.791s1.323,2.5.427,4.541c0,0,.229-3.129-.71-4.349l-1.228.958s1.242,2.465.483,4.158c0,0-.1-3.642-.751-3.917a7.068,7.068,0,0,0-1.239,1.35s.85,1.787.324,2.732c0,0-.324-2.43-.591-2.43a8.02,8.02,0,0,0-1.182,2.7,5.878,5.878,0,0,1,.923-2.865,3.223,3.223,0,0,0-1.639.85s.167-1.137,1.89-1.237a7.393,7.393,0,0,1,1.123-1.293,7.03,7.03,0,0,0-2.775.319s.921-1.08,3.091-.586l1.212-.988a9.961,9.961,0,0,0-3.24.032s1.112-.95,3.566-.27l1.323-.788a12.049,12.049,0,0,0-3.1-.27,4.743,4.743,0,0,1,3.483.054l.945-.424s-1.423-.27-1.839-.321-.437-.159-.437-.159a4.93,4.93,0,0,1,2.67.3A12.013,12.013,0,0,0,680.079,836.17Z" transform="translate(-539.812 -824.488)" fill="#6c63ff"/>
    <ellipse id="Ellipse_332" data-name="Ellipse 332" cx="8.078" cy="1.366" rx="8.078" ry="1.366" transform="translate(124.327 20.378)" fill="#6c63ff" opacity="0.1"/>
    <path id="Path_1343" data-name="Path 1343" d="M618.028,837.767s-6.436-.389-5.67,4.123a1.1,1.1,0,0,0,.572,1.158s0-.335.661-.221a3.153,3.153,0,0,0,.7.035,1.478,1.478,0,0,0,.856-.354h0s1.809-.748,2.514-3.7c0,0,.518-.645.5-.81l-1.08.462a1.957,1.957,0,0,1,.078,1.436s-.035-1.407-.243-1.374c-.043,0-.564.27-.564.27a3.2,3.2,0,0,1,.157,2.357s.181-1.682-.356-2.26l-.764.448a3.379,3.379,0,0,1,.24,2.559,4.8,4.8,0,0,0-.4-2.451l-.691.54a3.3,3.3,0,0,1,.27,2.343s-.057-2.055-.424-2.208a4.222,4.222,0,0,0-.7.753s.481,1.01.184,1.542c0,0-.184-1.369-.332-1.374a4.537,4.537,0,0,0-.667,1.528,3.281,3.281,0,0,1,.518-1.62,1.814,1.814,0,0,0-.923.478s.094-.643,1.08-.7a4.088,4.088,0,0,1,.632-.729,3.956,3.956,0,0,0-1.566.178,1.759,1.759,0,0,1,1.744-.329l.683-.559a5.626,5.626,0,0,0-1.825.019,2.2,2.2,0,0,1,2.011-.146l.743-.443a6.67,6.67,0,0,0-1.744-.151,2.684,2.684,0,0,1,1.963.03l.54-.238s-.81-.159-1.034-.184-.248-.089-.248-.089a2.786,2.786,0,0,1,1.506.167A6.355,6.355,0,0,0,618.028,837.767Z" transform="translate(-497.759 -825.659)" fill="#6c63ff"/>
    <ellipse id="Ellipse_333" data-name="Ellipse 333" cx="4.555" cy="0.769" rx="4.555" ry="0.769" transform="translate(111.281 17.014)" fill="#6c63ff" opacity="0.1"/>
    <path id="Path_1344" data-name="Path 1344" d="M660.169,802.353s-7.767-.47-6.852,4.976a1.328,1.328,0,0,0,.691,1.4s0-.4.8-.27a3.826,3.826,0,0,0,.842.041,1.779,1.779,0,0,0,1.034-.427h0s2.184-.9,3.032-4.474c0,0,.629-.778.6-.977l-1.312.559a2.36,2.36,0,0,1,.1,1.733s-.043-1.7-.3-1.658c-.049,0-.68.327-.68.327a3.871,3.871,0,0,1,.189,2.846s.221-2.03-.429-2.727l-.923.54a4.076,4.076,0,0,1,.292,3.091s.157-2.13-.486-2.97l-.837.651a3.985,3.985,0,0,1,.332,2.829s-.068-2.478-.513-2.667a5.081,5.081,0,0,0-.842.91s.58,1.218.219,1.86c0,0-.219-1.65-.4-1.658a5.421,5.421,0,0,0-.81,1.844,3.971,3.971,0,0,1,.626-1.949,2.2,2.2,0,0,0-1.115.578s.113-.775,1.3-.842a5.076,5.076,0,0,1,.764-.88,4.806,4.806,0,0,0-1.89.219,2.119,2.119,0,0,1,2.106-.4l.826-.672a6.791,6.791,0,0,0-2.206.022,2.688,2.688,0,0,1,2.43-.176l.9-.54a8.856,8.856,0,0,0-2.106-.181,3.231,3.231,0,0,1,2.37.035l.643-.286s-.969-.192-1.253-.221-.3-.108-.3-.108a3.355,3.355,0,0,1,1.817.2A7.922,7.922,0,0,0,660.169,802.353Z" transform="translate(-527.652 -799.804)" fill="#6c63ff"/>
    <ellipse id="Ellipse_334" data-name="Ellipse 334" cx="5.499" cy="0.929" rx="5.499" ry="0.929" transform="translate(121.67 8.469)" fill="#6c63ff" opacity="0.1"/>
  </g>
  <g id="browser" transform="translate(36.922 25.799)">
    <path id="Path_1345" data-name="Path 1345" d="M435.5,249.055V117H178.65V241.48a51.134,51.134,0,0,0,11.339,6.933q3.04,1.4,6.21,2.562H432.431Z" transform="translate(-178.65 -117)" fill="url(#linear-gradient)"/>
    <path id="Path_1346" data-name="Path 1346" d="M436.517,259.33V131H180.73V251.978a51.653,51.653,0,0,0,11.285,6.749q3.029,1.35,6.188,2.489H433.458Z" transform="translate(-180.168 -127.22)" fill="#fff"/>
    <rect id="Rectangle_250" data-name="Rectangle 250" width="255.784" height="6.787" transform="translate(0.564 0.375)" fill="#5a5773"/>
  </g>
  <g id="buttons" transform="translate(40.84 27.813)">
    <circle id="Ellipse_335" data-name="Ellipse 335" cx="1.755" cy="1.755" r="1.755" fill="#fff"/>
    <circle id="Ellipse_336" data-name="Ellipse 336" cx="1.755" cy="1.755" r="1.755" transform="translate(4.725)" fill="#fff"/>
    <circle id="Ellipse_337" data-name="Ellipse 337" cx="1.755" cy="1.755" r="1.755" transform="translate(9.449)" fill="#fff"/>
  </g>
  <g id="boxes" transform="translate(44.35 47.878)">
    <rect id="Rectangle_251" data-name="Rectangle 251" width="42.252" height="26.55" transform="translate(58.502)" fill="#6c63ff"/>
    <rect id="Rectangle_252" data-name="Rectangle 252" width="42.252" height="26.55" fill="#5a5773" opacity="0.2"/>
    <rect id="Rectangle_253" data-name="Rectangle 253" width="42.252" height="26.55" transform="translate(117.004)" fill="#5a5773" opacity="0.2"/>
    <rect id="Rectangle_254" data-name="Rectangle 254" width="42.252" height="26.55" transform="translate(0 37.956)" fill="#5a5773" opacity="0.2"/>
    <rect id="Rectangle_255" data-name="Rectangle 255" width="42.252" height="26.55" transform="translate(58.502 37.956)" fill="#5a5773" opacity="0.2"/>
    <rect id="Rectangle_256" data-name="Rectangle 256" width="42.252" height="26.55" transform="translate(117.004 37.956)" fill="#5a5773" opacity="0.2"/>
    <rect id="Rectangle_257" data-name="Rectangle 257" width="42.252" height="26.55" transform="translate(0 75.91)" fill="#5a5773" opacity="0.2"/>
    <rect id="Rectangle_258" data-name="Rectangle 258" width="42.252" height="26.55" transform="translate(58.502 75.91)" fill="#5a5773" opacity="0.2"/>
    <rect id="Rectangle_259" data-name="Rectangle 259" width="42.252" height="26.55" transform="translate(117.004 75.91)" fill="#5a5773" opacity="0.2"/>
  </g>
  <g id="woman" transform="translate(93.038 54.508)">
    <path id="Path_1347" data-name="Path 1347" d="M431.012,283.236s-7.589-13.872-6.309-16.129a30.74,30.74,0,0,0,2.222-5.524s2.8-1.917,2.8-2.7,2.219-2.595,3.388-3.383.583-4.511,0-4.962a10.286,10.286,0,0,1-1.509-2.03s.81-2.254,0-2.932.119-1.35,0-2.03a27.247,27.247,0,0,1,0-3.156,5.088,5.088,0,0,0-2.986-2.16l-.086-.356-.5-2.1s2.43-4.657-1.512-7.1a6.585,6.585,0,0,0-.872-.459,3.034,3.034,0,0,0-.022-.305,19.08,19.08,0,0,0-.572-3.566c-.205-.653-.472-1.093-.81-.994a.54.54,0,0,0-.221.127,2.461,2.461,0,0,0-.418.494h0a.112.112,0,0,1-.019.03,8.467,8.467,0,0,0-.929,2.578,14.881,14.881,0,0,0-.27,1.62,8.908,8.908,0,0,0-.451,1c-.478,1.239-1.037,3.386-.019,4.973.864,1.35,2.028,3.2,2.873,4.555l.027.043.051.084-.089.057v.208l.078,1.137.653,9.822a4.176,4.176,0,0,0-.6-.127,5.449,5.449,0,0,0-.872-.057c-.57-2.238-2.133-4.32-2.43-6.658a6.2,6.2,0,0,1-.046-.7c.024-1.471.391-2.948.362-4.417,0-.27,0-.54-.027-.81h0a2.145,2.145,0,0,0-.022-.224,6.639,6.639,0,0,0-3.61-5.03c-.678-.337-1.412-.562-2.071-.931-1.523-.853-2.5-2.392-3.88-3.448a4.3,4.3,0,0,0-3.712-.81,17.139,17.139,0,0,0-1.806.373h0a16.294,16.294,0,0,0-4.133,1.717c-.175.105-.351.213-.518.337a2.284,2.284,0,0,0-.834.975,2.554,2.554,0,0,0-.13,1.05c0,.257,0,.518.016.775-.076,4.32-4.73,7.662-5.113,11.879,0,.1-.016.2-.022.3v.462h0v.337c.067,1.849,1.029,3.572,1.2,5.413.016.165.024.327.027.491a8.166,8.166,0,0,1-.478,2.478,7.254,7.254,0,0,0-1.677.68c-1.415.91-3.969,2.481-4.9,5.486a8.034,8.034,0,0,0-.354,2.408,50.286,50.286,0,0,1-.788,8.6,16.068,16.068,0,0,1-.5,2.114.5.5,0,0,0-.016.208l-.562,7.289-.1,1.282-.14,1.825s.041.111.1.3a8.582,8.582,0,0,1,.221.842,4.53,4.53,0,0,1,.073,1.89,1.3,1.3,0,0,1-.394.694.293.293,0,0,0-.046.051,5.607,5.607,0,0,0-.427,1.857c-.049.378-.095.81-.14,1.258-.27,2.875-.437,7.179-.54,10.737-.1,3.51-.132,6.282-.132,6.282a7.163,7.163,0,0,0,1.45.718c-.038.094-.078.192-.116.294a14.183,14.183,0,0,0-.88,3.71c-.227,2.654.516,5.6,4.217,7.119a5.954,5.954,0,0,0,.726.248,2.3,2.3,0,0,0,1.847-.113c0,.159.019.313.027.467.038.659.07,1.261.086,1.766.116,3.159.9,8.683.9,8.683a11.5,11.5,0,0,1,.035,2.932,15.924,15.924,0,0,0,0,3.383s.81,1.35,0,2.03-1.05,4.05-.81,4.511a.153.153,0,0,1,.013.051c.178,1.12-.829,17.767-.829,17.767s-.953,2.549-1.712,5.194c-.74,2.576-1.3,5.243-.61,5.742a5.731,5.731,0,0,0,2.136.578c0,.111-.016.221-.027.335a9.621,9.621,0,0,1-.472,2.8c-.321.459-.659,4.017-.823,5.94l-.016.213a19.9,19.9,0,0,0-.869,2.522s-2.584,6.479-1.709,8.161a1.38,1.38,0,0,0,.321.4h0a.736.736,0,0,0,.084.076c1.245,1,4.363,1.2,5.494,1.25l-.043,1.6v.059h1.471v-.04c0-.2.032-1.131.081-2.373,0-.221.016-.454.027-.691,0-.186.019-.375.027-.57a9.987,9.987,0,0,0,.64-3.6,15.813,15.813,0,0,1,.567-4.179,11.613,11.613,0,0,1,.748-2.038,9.306,9.306,0,0,0-.181-4.15,3,3,0,0,0-.54-.934c0-.057,0-.113,0-.173v-.367a15.578,15.578,0,0,1,.346-3.461.38.38,0,0,1,0-.054c.022-.094.046-.184.07-.27l.016-.059.478.016c1.466.04,2.543.04,2.543.04a54.845,54.845,0,0,0,1.053-8.569v-.351a33.377,33.377,0,0,1,.707-6.077l.942-9.139a4.806,4.806,0,0,1,0-2.7c.289-.7.885-1.99,1.3-2.881.194-.413.348-.737.413-.877l.038-.076a1.747,1.747,0,0,1-.416-.208h0c-.381-.254-.721-.751.418-1.482,1.752-1.129,1.169-3.947,1.169-3.947a2.026,2.026,0,0,1,.092-1.917c.607-.9,0-4.285,0-4.285a14.17,14.17,0,0,0,1.2-2.821c.435-1.35,1.534-7.951,2.052-11.134.17-1.045.27-1.72.27-1.72l.016.165.016.178h0l.146,1.5.019.2.27,2.843a87.507,87.507,0,0,1,.2,10.4v.054a3.461,3.461,0,0,1-.2.888c-.621,1.4-.508,6.982-.475,8.215v.248a4.967,4.967,0,0,0-.329,1.906h0a1.224,1.224,0,0,0,.213.567,1.436,1.436,0,0,1,.208.877v.027a3.177,3.177,0,0,1-.032.389,7.41,7.41,0,0,1-.41,1.528,5.593,5.593,0,0,0-.389,2.508h0a.794.794,0,0,0,.154.305.721.721,0,0,1,.089.324.11.11,0,0,0,0,.03c.219,1.817-.346,9.838-.68,14.228-.135,1.733-.232,2.9-.232,2.9l-.926,9.584.092.065c.105.076.3.205.567.362v.022l-.04.289c-.132.923-.31,2-.5,2.819-.016.062-.03.122-.046.178a2.584,2.584,0,0,0-.991.4c-1.965,3.491-1.1,6.258,0,7.063a2.836,2.836,0,0,1,.661,1.65l.27,3.48v.4a1.037,1.037,0,0,0,.051.319l.084,1.056.113,1.469h.9v-1.779h.049c1.415.049,3.7.108,4.69.03h.027a1.751,1.751,0,0,0,.27-.03.679.679,0,0,0,.157-.043c.526-.254,1.839-3.974.656-4.819s-1.444-3.24-1.444-3.24c-.1-.313-.205-.61-.31-.894v-.184a14.855,14.855,0,0,1,.14-3.094,23.529,23.529,0,0,0,.308-3.7v-.343a4.6,4.6,0,0,0,.6-.2l.043-.019a4.242,4.242,0,0,0,1.007-.6l3.3-14.644.348-1.7,1.984-9.69s-.7-3.383,0-3.944c.256-.205.327-1.08.311-2.092-.027-1.771-.311-4-.311-4s.934-1.466,1.4-2.368,0-3.269,0-3.269L423.42,328a51.236,51.236,0,0,1,3.62-11.841c1.89-3.982.686-14.736-.54-20.459-.032-.148-.065-.294-.1-.435v-.022c.578-.286,1.285-.632,2.041-.994l.286-.135c.958-.451,1.974-.915,2.883-1.3l.059-.024a20.147,20.147,0,0,1,2.006-.751,3.366,3.366,0,0,1,.616-.127C435.917,291.805,431.012,283.236,431.012,283.236Zm-36.531,18.345h.486c-.057.105-.111.213-.165.321-.032.065-.065.127-.094.192-.178.37-.343.748-.478,1.118.054-.4.121-.834.2-1.3C394.446,301.811,394.465,301.689,394.481,301.581Zm-1.312,7.038a.2.2,0,0,0,0-.038l-.041-.127c-.03-.086-.057-.173-.084-.27q.251-.076.51-.17h.035v.089c-.013.127-.03.254-.046.378h0a.269.269,0,0,1,0,.049,2.64,2.64,0,0,1-.035.3c-.024.194-.049.383-.07.564-.051-.17-.1-.337-.157-.5a1.278,1.278,0,0,1-.113-.27Z" transform="translate(-386.5 -223.338)" fill="url(#linear-gradient-2)"/>
    <path id="Path_1348" data-name="Path 1348" d="M521.3,241.438l-2.916,1.031-1.058-1.755c-.81-1.35-1.933-3.2-2.762-4.538-1.463-2.36.451-5.956.451-5.956s.346-3.61,1.577-4.722,1.574,4.722,1.574,4.722c4.943,2.246,2.295,7.53,2.295,7.53l.481,2.1Z" transform="translate(-479.584 -224.812)" fill="#efb7b9"/>
    <path id="Path_1349" data-name="Path 1349" d="M530.254,280.35l-2.916,1.031-1.058-1.755v-.154a5.078,5.078,0,0,1,3.62-.715Z" transform="translate(-488.542 -263.724)" opacity="0.1"/>
    <path id="Path_1350" data-name="Path 1350" d="M523.56,293.084l1.461-1.237-.732-11.129a4.623,4.623,0,0,1,6.577,1.461,28.4,28.4,0,0,0,0,3.148c.113.675-.786,1.35,0,2.022s0,2.924,0,2.924a10.153,10.153,0,0,0,1.45,2.022c.562.448,1.126,4.16,0,4.946s-3.237,2.586-3.237,3.372-2.7,2.7-2.7,2.7l-2.37-3.134Z" transform="translate(-486.557 -264.633)" fill="#ff6484"/>
    <path id="Path_1351" data-name="Path 1351" d="M395.485,540.169c-5.448-2.311-4.239-7.956-3.213-10.8a14.7,14.7,0,0,1,.721-1.685l3.056-1.855s.624,1.59,1.291,3.723C398.886,534.515,400.666,542.369,395.485,540.169Z" transform="translate(-390.069 -444.163)" fill="#efb7b9"/>
    <path id="Path_1352" data-name="Path 1352" d="M415.013,765.782a9.18,9.18,0,0,0-.81,2.273,16.414,16.414,0,0,0-.351,3.869c.022.9.1,1.488.1,1.488l-6.069,4.174s.035-.489.095-1.207c.157-1.911.483-5.459.791-5.918a9.85,9.85,0,0,0,.456-2.786c.095-1.188.132-2.23.132-2.23S416.657,762.707,415.013,765.782Z" transform="translate(-402.108 -618.267)" fill="#efb7b9"/>
    <path id="Path_1353" data-name="Path 1353" d="M471.31,779.338s0,1.161-.043,2.511a25.715,25.715,0,0,1-.294,3.685,15.166,15.166,0,0,0-.138,3.083c.04,1.35.138,2.565.138,2.565s-6.2-5.859-5.564-6.323a2.871,2.871,0,0,0,.491-1.288c.189-.81.359-1.89.486-2.808.151-1.093.246-1.974.246-1.974Z" transform="translate(-444.071 -628.829)" fill="#efb7b9"/>
    <path id="Path_1354" data-name="Path 1354" d="M418.678,765.782a9.181,9.181,0,0,0-.81,2.273,49.6,49.6,0,0,1-4.968-.381c.092-1.161.132-2.23.132-2.23S420.322,762.707,418.678,765.782Z" transform="translate(-405.773 -618.267)" opacity="0.1"/>
    <path id="Path_1355" data-name="Path 1355" d="M474.074,779.353s0,1.161-.043,2.511a6.755,6.755,0,0,1-4.881-1.08c.151-1.093.246-1.974.246-1.974Z" transform="translate(-446.836 -628.844)" opacity="0.1"/>
    <path id="Path_1356" data-name="Path 1356" d="M439.406,502.913a52.436,52.436,0,0,0-3.485,11.8l-.9,5.4s.451,2.36,0,3.259-1.35,2.362-1.35,2.362.675,5.508,0,6.069,0,3.934,0,3.934l-2.249,11.339-3.148,14.611c-3.035,2.476-7.073-.672-7.073-.672l.891-9.555s1.35-16.739.788-17.424.224-2.81.224-2.81.788-2.025.227-2.81.111-2.473.111-2.473-.224-6.857.451-8.431,0-11.309,0-11.309l-.27-3.032-.157-1.679-.013-.165s-.1.672-.27,1.714c-.5,3.172-1.555,9.746-1.974,11.1a14.453,14.453,0,0,1-1.153,2.81s.583,3.372,0,4.271a2.091,2.091,0,0,0-.089,1.911s.562,2.81-1.126,3.934,0,1.687,0,1.687-1.236,2.7-1.685,3.82a5,5,0,0,0,0,2.7l-.9,9.1a32.931,32.931,0,0,0-.675,6.407,56.3,56.3,0,0,1-1.012,8.542s-8.656,0-9.989-1.012,2.227-10.888,2.227-10.888,1.012-17.311.786-17.759,0-3.823.788-4.5,0-2.025,0-2.025a16.579,16.579,0,0,1,0-3.372,11.963,11.963,0,0,0-.035-2.924s-.753-5.508-.864-8.656-.675-10.227-.675-10.227.589-4.379.678-6.463a7.342,7.342,0,0,1,.81-2.627,23.444,23.444,0,0,1,1.674-2.937s26.634-7.873,27.751-7.09c.3.208.729,1.62,1.156,3.664C440.065,488.226,441.226,498.944,439.406,502.913Z" transform="translate(-399.482 -409.828)" fill="#444053"/>
    <circle id="Ellipse_338" data-name="Ellipse 338" cx="7.757" cy="7.757" r="7.757" transform="translate(15.759 8.869)" fill="#a1616a"/>
    <path id="Path_1357" data-name="Path 1357" d="M449.723,482.521c-.894.459-1.493.775-1.493.775s-12.589,5.958-16.169,5.621c-2.77-.27-9.841-.116-12.921-.041a23.447,23.447,0,0,1,1.674-2.937s26.636-7.87,27.754-7.087C448.865,479.065,449.3,480.472,449.723,482.521Z" transform="translate(-410.328 -409.828)" opacity="0.1"/>
    <path id="Path_1358" data-name="Path 1358" d="M412.538,325.441s-7.184,1.134-8.88,2.246-5.054,3.261-5.054,7.87a44.65,44.65,0,0,1-1.236,10.678c-.451,1.347,7.082,12.252,7.082,12.252l-2.7,16.525s10.8-.337,14.4,0,16.18-5.621,16.18-5.621,7.419-3.934,8.993-4.05-3.148-8.656-3.148-8.656-7.308-13.823-6.072-16.072a31.063,31.063,0,0,0,2.144-5.508l-1.35-11.463a4.41,4.41,0,0,0-3.71.562c-1.687,1.237-7.419.562-7.419.562Z" transform="translate(-394.419 -296.428)" fill="#ff6484"/>
    <path id="Path_1359" data-name="Path 1359" d="M395.365,389.863l-2.819.786-.78,10.578s1.012,2.81,0,3.71-1.237,20.122-1.237,20.122a7.351,7.351,0,0,0,7.082.562s-.562-2.136,1.126-9.892a61.8,61.8,0,0,0,1.685-11.69s0-9.668.788-11.242,0-5.508,0-5.508-1.574-2.136-1.463-2.921S395.365,389.863,395.365,389.863Z" transform="translate(-389.442 -340.842)" opacity="0.1"/>
    <path id="Path_1360" data-name="Path 1360" d="M399.727,529.583a7.179,7.179,0,0,1-5.068-.184,14.7,14.7,0,0,1,.721-1.685l3.056-1.855S399.071,527.45,399.727,529.583Z" transform="translate(-392.457 -444.185)" opacity="0.1"/>
    <path id="Path_1361" data-name="Path 1361" d="M394.743,389.834l-2.81.786-.786,10.578s1.012,2.81,0,3.71-1.237,20.122-1.237,20.122a7.342,7.342,0,0,0,7.082.551s-.562-2.136,1.123-9.892A62.307,62.307,0,0,0,399.8,404s0-9.668.786-11.242,0-5.508,0-5.508-1.574-2.136-1.461-2.921S394.743,389.834,394.743,389.834Z" transform="translate(-388.989 -340.813)" fill="#ff6484"/>
    <path id="Path_1362" data-name="Path 1362" d="M498.894,411.15s-1.461,12.589-5.734,14.951C493.16,426.1,502.715,423.4,498.894,411.15Z" transform="translate(-464.364 -360.444)" opacity="0.1"/>
    <path id="Path_1363" data-name="Path 1363" d="M434.88,415.32s5.281,2.584,4.05,4.382S434.88,415.32,434.88,415.32Z" transform="translate(-421.818 -363.489)" opacity="0.1"/>
    <path id="Path_1364" data-name="Path 1364" d="M434.88,434.47s3.372,3.485,2.7,4.722S434.88,434.47,434.88,434.47Z" transform="translate(-421.818 -377.469)" opacity="0.1"/>
    <path id="Path_1365" data-name="Path 1365" d="M535.63,327.47a11.949,11.949,0,0,1,1.45,3.71C537.207,332.643,535.63,327.47,535.63,327.47Z" transform="translate(-495.368 -299.356)" opacity="0.1"/>
    <path id="Path_1366" data-name="Path 1366" d="M535.63,315.552s.664-.564,2.36,0S535.63,315.552,535.63,315.552Z" transform="translate(-495.368 -290.473)" opacity="0.1"/>
    <path id="Path_1367" data-name="Path 1367" d="M485.1,553.083a15.631,15.631,0,0,1-8.221-1.053l-1.417,3.629-.157-1.679c.232-1.409.683-2.919,1.574-3.3A13.643,13.643,0,0,0,485.1,553.083Z" transform="translate(-451.333 -462.304)" opacity="0.1"/>
    <path id="Path_1368" data-name="Path 1368" d="M426.18,577.07s6.914,1.434,8.853,1.18Z" transform="translate(-415.467 -481.569)" opacity="0.1"/>
    <path id="Path_1369" data-name="Path 1369" d="M428.84,583.749a14.282,14.282,0,0,1,4.425.464Z" transform="translate(-417.409 -486.437)" opacity="0.1"/>
    <path id="Path_1370" data-name="Path 1370" d="M430.09,588.31a26.458,26.458,0,0,0,4.088.54Z" transform="translate(-418.322 -489.775)" opacity="0.1"/>
    <path id="Path_1371" data-name="Path 1371" d="M429.46,643.411c.127-.084,5.9-1.434,6.62-.464Z" transform="translate(-417.862 -529.406)" opacity="0.1"/>
    <path id="Path_1372" data-name="Path 1372" d="M429.46,651.459s5.016-.591,5.143,0S429.46,651.459,429.46,651.459Z" transform="translate(-417.862 -535.683)" opacity="0.1"/>
    <path id="Path_1373" data-name="Path 1373" d="M429.46,655.722s5.354-1.107,5.985-.837S429.46,655.722,429.46,655.722Z" transform="translate(-417.862 -538.345)" opacity="0.1"/>
    <path id="Path_1374" data-name="Path 1374" d="M413.989,791.911l-6.069,4.174s.035-.489.094-1.207a16.361,16.361,0,0,1,3.107-5.073,2.488,2.488,0,0,1,2.77.618C413.914,791.319,413.989,791.911,413.989,791.911Z" transform="translate(-402.137 -636.763)" opacity="0.1"/>
    <path id="Path_1375" data-name="Path 1375" d="M407.6,796.109a15.062,15.062,0,0,0-1.266,6.21,9.63,9.63,0,0,1-1.285,5,4.932,4.932,0,0,1-.427.61s-4.217-.035-5.694-1.258a1.461,1.461,0,0,1-.4-.486c-.845-1.685,1.644-8.135,1.644-8.135a17.913,17.913,0,0,1,3.961-7.63C408.859,789.195,407.6,796.109,407.6,796.109Z" transform="translate(-395.152 -637.212)" fill="#444053"/>
    <path id="Path_1376" data-name="Path 1376" d="M406.59,828.405a4.918,4.918,0,0,1-.427.61s-4.217-.035-5.694-1.258c.726-2.4,3.043-9.673,4.128-8.437C405.619,820.481,406.329,826.067,406.59,828.405Z" transform="translate(-396.698 -658.314)" opacity="0.1"/>
    <path id="Path_1377" data-name="Path 1377" d="M420.2,819.764l-.294,10.891h1.415s.229-9.555.861-10.891S420.2,819.764,420.2,819.764Z" transform="translate(-410.89 -658.307)" fill="#444053"/>
    <path id="Path_1378" data-name="Path 1378" d="M470.972,804.007s-6.2-5.859-5.564-6.323a2.871,2.871,0,0,0,.491-1.288c1.191-.208,3.24.289,4.935,5.046C470.875,802.792,470.972,804.007,470.972,804.007Z" transform="translate(-444.071 -641.654)" opacity="0.1"/>
    <path id="Path_1379" data-name="Path 1379" d="M467.611,811a.629.629,0,0,1-.148.043,44,44,0,0,1-4.919,0,1.064,1.064,0,0,1-1.029-1.061c0-.4,0-.9-.032-1.426-.07-1.663-.27-3.642-.867-4.087-1.056-.81-1.89-3.558,0-7.038,0,0,3.623-2.767,6.237,5.551,0,0,.254,2.373,1.39,3.215S468.118,810.764,467.611,811Z" transform="translate(-439.784 -642.118)" fill="#444053"/>
    <path id="Path_1380" data-name="Path 1380" d="M472.83,829.991a43.967,43.967,0,0,1-4.919,0,1.064,1.064,0,0,1-1.029-1.061c0-.4,0-.9-.032-1.426.456-2.014,1.112-4.087,1.957-4.56C468.813,822.942,471.369,822.653,472.83,829.991Z" transform="translate(-445.157 -661.061)" opacity="0.1"/>
    <path id="Path_1381" data-name="Path 1381" d="M423.46,798.492l.68,9.063H425V797.72Z" transform="translate(-402.169 -636.854)" fill="#444053"/>
    <path id="Path_1382" data-name="Path 1382" d="M431.583,239.084a15.5,15.5,0,0,0-6.917,2.222,2.874,2.874,0,0,0-1.3,1.309,4.34,4.34,0,0,0-.105,1.62c.073,4.649-5.111,8.167-4.949,12.813.065,1.844.991,3.561,1.161,5.4.283,3.067-1.531,5.888-3.269,8.429a6.982,6.982,0,0,0,4.927-1.633,37.363,37.363,0,0,1,.688,18.831H424.3a1.89,1.89,0,0,1,.726.089,1.825,1.825,0,0,1,.575.429c2.325,2.314,3.882,5.734,2.994,8.893l5.292-1.984a15.72,15.72,0,0,0,3.653-1.741,5.275,5.275,0,0,0,2.257-3.253c.143-.81.1-1.776.764-2.246a4.161,4.161,0,0,1,1.042-.386c1.453-.513,2.1-2.192,2.392-3.7a21.329,21.329,0,0,0,.337-5.634c-.235-3.159-1.169-6.366-.4-9.449.435-1.731,1.4-3.342,1.479-5.13.127-2.945-2.176-5.483-2.519-8.413-.24-2.041.5-4.106.257-6.147a6.6,6.6,0,0,0-3.475-5.014c-.651-.335-1.35-.559-1.992-.929-1.466-.85-2.4-2.381-3.734-3.434s-3.548-1.45-4.549-.081Z" transform="translate(-408.182 -234.818)" opacity="0.1"/>
    <path id="Path_1383" data-name="Path 1383" d="M431.583,237.82a15.5,15.5,0,0,0-6.917,2.222,2.874,2.874,0,0,0-1.3,1.309,4.34,4.34,0,0,0-.105,1.62c.073,4.649-5.111,8.167-4.949,12.816.065,1.841.991,3.558,1.161,5.4.283,3.067-1.531,5.888-3.269,8.431a7.019,7.019,0,0,0,4.927-1.633,37.349,37.349,0,0,1,.688,18.826H424.3a1.89,1.89,0,0,1,.726.092,1.776,1.776,0,0,1,.575.427c2.325,2.316,3.882,5.734,2.994,8.893l5.292-1.984a15.719,15.719,0,0,0,3.653-1.741,5.275,5.275,0,0,0,2.257-3.253c.143-.81.1-1.776.764-2.246a4.159,4.159,0,0,1,1.042-.386c1.453-.513,2.1-2.192,2.392-3.7a21.327,21.327,0,0,0,.346-5.64c-.235-3.159-1.169-6.366-.4-9.449.435-1.731,1.4-3.342,1.479-5.13.127-2.945-2.176-5.483-2.519-8.413-.24-2.041.5-4.1.256-6.147a6.609,6.609,0,0,0-3.475-5.014c-.651-.335-1.35-.559-1.992-.926-1.466-.853-2.4-2.384-3.734-3.437s-3.548-1.45-4.549-.081Z" transform="translate(-408.182 -233.891)" fill="#925978"/>
    <g id="Group_490" data-name="Group 490" transform="translate(8.018 7.957)" opacity="0.1">
      <path id="Path_1384" data-name="Path 1384" d="M442.276,252.81a3.007,3.007,0,0,0-.016.313C442.268,253.021,442.274,252.915,442.276,252.81Z" transform="translate(-435.224 -252.81)"/>
      <path id="Path_1385" data-name="Path 1385" d="M514.938,281.233a28.739,28.739,0,0,0,.3-4.293A31.063,31.063,0,0,0,514.938,281.233Z" transform="translate(-488.264 -270.425)"/>
      <path id="Path_1386" data-name="Path 1386" d="M425.163,305.911c-.157-1.674-.937-3.24-1.12-4.911a6.153,6.153,0,0,0-.041.923c.065,1.822.969,3.526,1.153,5.34A7.29,7.29,0,0,0,425.163,305.911Z" transform="translate(-421.893 -287.99)"/>
      <path id="Path_1387" data-name="Path 1387" d="M518.2,331.183a11.579,11.579,0,0,0-.27,3.353,10.161,10.161,0,0,1,.27-1.947c.435-1.731,1.4-3.342,1.479-5.13a5.564,5.564,0,0,0-.043-.95C519.429,328.116,518.589,329.612,518.2,331.183Z" transform="translate(-490.449 -306.612)"/>
      <path id="Path_1388" data-name="Path 1388" d="M421.127,344.36a7.02,7.02,0,0,1-3.985,1.62c-.308.481-.626.95-.942,1.415a7.019,7.019,0,0,0,4.927-1.633,37.259,37.259,0,0,1,1.571,10.111A37.342,37.342,0,0,0,421.127,344.36Z" transform="translate(-416.2 -319.643)"/>
      <path id="Path_1389" data-name="Path 1389" d="M477.55,390.5c-.3,1.512-.94,3.191-2.392,3.7a4.049,4.049,0,0,0-1.042.389c-.667.47-.621,1.442-.764,2.246a5.208,5.208,0,0,1-2.257,3.24,16.232,16.232,0,0,1-3.653,1.744l-5.049,1.89a6.97,6.97,0,0,1-.243,1.5l5.292-1.984a15.719,15.719,0,0,0,3.653-1.741,5.275,5.275,0,0,0,2.257-3.253c.143-.81.1-1.776.764-2.246a4.156,4.156,0,0,1,1.042-.386c1.452-.513,2.1-2.192,2.392-3.7a21.169,21.169,0,0,0,.381-4.779A21.14,21.14,0,0,1,477.55,390.5Z" transform="translate(-449.745 -350.852)"/>
      <path id="Path_1390" data-name="Path 1390" d="M440.847,414.58a1.785,1.785,0,0,0-.575-.429,1.931,1.931,0,0,0-.726-.092H437.34c-.086.47-.178.94-.27,1.407h2.487a1.89,1.89,0,0,1,.726.092,1.777,1.777,0,0,1,.575.427,10.7,10.7,0,0,1,3.21,6.323A10.072,10.072,0,0,0,440.847,414.58Z" transform="translate(-431.435 -370.522)"/>
    </g>
    <path id="Path_1391" data-name="Path 1391" d="M405.37,449.068s2.009-.842,2.457,0S405.37,449.068,405.37,449.068Z" transform="translate(-400.276 -387.852)" opacity="0.1"/>
    <path id="Path_1392" data-name="Path 1392" d="M408,454.418s2.009-.842,2.46,0S408,454.418,408,454.418Z" transform="translate(-402.195 -391.757)" opacity="0.1"/>
  </g>
  <g id="leaves" transform="translate(193.703 2.327)">
    <path id="Path_1393" data-name="Path 1393" d="M844.342,51.644s-10.273-.618-9.061,6.579a1.756,1.756,0,0,0,.913,1.849s.019-.54,1.053-.354a4.727,4.727,0,0,0,1.115.054,2.314,2.314,0,0,0,1.361-.564h0s2.886-1.191,4.009-5.91c0,0,.832-1.031.81-1.3l-1.733.742a3.106,3.106,0,0,1,.124,2.289s-.054-2.246-.389-2.192c-.067,0-.9.432-.9.432s1.018,2.179.248,3.764c0,0,.292-2.684-.567-3.6l-1.226.726s1.191,2.249.383,4.085c0,0,.208-2.816-.64-3.912l-1.107.861s1.12,2.206.446,3.728c0,0-.089-3.28-.678-3.526a6.679,6.679,0,0,0-1.112,1.2s.764,1.62.289,2.457c0,0-.292-2.181-.54-2.192a7.268,7.268,0,0,0-1.064,2.43,5.267,5.267,0,0,1,.829-2.578,2.88,2.88,0,0,0-1.474.767s.148-1.023,1.712-1.115a6.733,6.733,0,0,1,1.01-1.164,6.331,6.331,0,0,0-2.5.289,2.821,2.821,0,0,1,2.784-.54l1.08-.891a9.316,9.316,0,0,0-2.916.03s1-.853,3.21-.232l1.188-.71a10.666,10.666,0,0,0-2.784-.24,4.271,4.271,0,0,1,3.132.049l.85-.381s-1.28-.251-1.652-.292-.394-.143-.394-.143a4.417,4.417,0,0,1,2.4.27A10.915,10.915,0,0,0,844.342,51.644Z" transform="translate(-814.712 -45.807)" fill="#6c63ff" opacity="0.1"/>
    <path id="Path_1394" data-name="Path 1394" d="M801.127,30.06s-8.639,5.591-3.4,10.67a1.757,1.757,0,0,0,1.831.95s-.3-.443.64-.91a4.687,4.687,0,0,0,.931-.618,2.324,2.324,0,0,0,.764-1.261h0s1.62-2.673-.27-7.138c0,0,.059-1.323-.124-1.517l-.956,1.62A3.107,3.107,0,0,1,802,33.624s-1.374-1.774-1.62-1.533c-.049.049-.47.883-.47.883s2.114,1.15,2.43,2.881c0,0-1.35-2.335-2.595-2.565l-.562,1.3s2.295,1.107,2.732,3.064c0,0-1.5-2.392-2.835-2.773l-.378,1.35s2.214,1.123,2.568,2.754c0,0-2.014-2.586-2.635-2.43a6.846,6.846,0,0,0-.184,1.62s1.571.842,1.69,1.809c0,0-1.528-1.585-1.725-1.452A7.283,7.283,0,0,0,799,41.121a5.272,5.272,0,0,1-.859-2.568,2.888,2.888,0,0,0-.734,1.49s-.486-.913.721-1.911a7.392,7.392,0,0,1,.121-1.536,6.249,6.249,0,0,0-1.841,1.712s.1-1.269,1.93-2.073l.351-1.363a9.01,9.01,0,0,0-2.33,1.752s.3-1.28,2.446-2.09l.54-1.277a10.987,10.987,0,0,0-2.387,1.458,4.3,4.3,0,0,1,2.554-1.817l.459-.81s-1.18.556-1.5.745-.4.119-.4.119a4.425,4.425,0,0,1,2.092-1.207A10.733,10.733,0,0,0,801.127,30.06Z" transform="translate(-786.138 -30.06)" fill="#6c63ff" opacity="0.1"/>
    <path id="Path_1395" data-name="Path 1395" d="M761.2,54.124s-5.165,8.909,1.809,11.05a1.741,1.741,0,0,0,2.063,0s-.467-.254.159-1.1a4.729,4.729,0,0,0,.54-.972,2.333,2.333,0,0,0,.111-1.471h0s.229-3.116-3.483-6.239c0,0-.54-1.2-.81-1.293l-.116,1.89a3.113,3.113,0,0,1,2.1.915s-2.03-.958-2.133-.637c-.022.065-.019,1-.019,1s2.427.073,3.507,1.471c0,0-2.268-1.466-3.475-1.11l.086,1.409s2.546-.054,3.823,1.493c0,0-2.43-1.45-3.78-1.185l.27,1.374s2.484,0,3.537,1.291c0,0-2.97-1.393-3.453-.98a6.672,6.672,0,0,0,.575,1.536s1.782.038,2.327.845c0,0-2.081-.721-2.2-.51a7.277,7.277,0,0,0,1.7,2.044,5.273,5.273,0,0,1-1.93-1.89,2.892,2.892,0,0,0,.022,1.66s-.848-.591-.227-2.03a6.788,6.788,0,0,1-.586-1.423,6.416,6.416,0,0,0-.864,2.36,2.8,2.8,0,0,1,.778-2.721l-.305-1.377a9.013,9.013,0,0,0-1.282,2.619s-.313-1.277,1.234-2.97l-.1-1.38a10.778,10.778,0,0,0-1.463,2.381,4.26,4.26,0,0,1,1.45-2.778l.04-.931s-.81,1.029-1,1.35-.305.275-.305.275a4.444,4.444,0,0,1,1.318-2.028A11,11,0,0,0,761.2,54.124Z" transform="translate(-759.363 -47.61)" fill="#6c63ff" opacity="0.1"/>
  </g>
  <path id="Path_1396" data-name="Path 1396" d="M899.886,348.4a3.863,3.863,0,1,0,3.863,3.863A3.863,3.863,0,0,0,899.886,348.4Zm-11.3-30.316v3.863h3.863l6.955,14.088-2.908,4.733a3.715,3.715,0,0,0-.483,1.836c0,2.586,1.768,3.863,4.166,3.863h22.589v-3.715H900.655a.456.456,0,0,1-.483-.483,2.426,2.426,0,0,1,.205-.481l1.93-3.048H916.7a3.78,3.78,0,0,0,3.38-2.028l6.957-11.963a2.243,2.243,0,0,0,.194-.966,1.857,1.857,0,0,0-1.933-1.836H896.706l-1.836-3.863ZM918.906,348.4a3.863,3.863,0,1,0,3.866,3.864A3.863,3.863,0,0,0,918.906,348.4Z" transform="translate(-659.998 -237.993)" fill="#6c63ff"/>
  <path id="Path_1397" data-name="Path 1397" d="M916.579,327.45h-3.24v-3.24h-2.43v3.24h-3.24v2.43h3.24v3.24h2.43v-3.24h3.24Z" transform="translate(-662.615 -236.675)" fill="#fff"/>
</svg>
